<svg xmlns="http://www.w3.org/2000/svg" viewBox="0 0 500 500"><g id="freepik--background-complete--inject-20"><rect y="382.4" width="500" height="0.25" style="fill:#ebebeb"></rect><rect x="416.78" y="398.49" width="33.12" height="0.25" style="fill:#ebebeb"></rect><rect x="322.53" y="401.21" width="8.69" height="0.25" style="fill:#ebebeb"></rect><rect x="396.59" y="389.21" width="19.19" height="0.25" style="fill:#ebebeb"></rect><rect x="52.46" y="390.89" width="43.19" height="0.25" style="fill:#ebebeb"></rect><rect x="104.56" y="390.89" width="6.33" height="0.25" style="fill:#ebebeb"></rect><rect x="131.47" y="395.11" width="93.68" height="0.25" style="fill:#ebebeb"></rect><path d="M237,337.8H43.91a5.71,5.71,0,0,1-5.7-5.71V60.66A5.71,5.71,0,0,1,43.91,55H237a5.71,5.71,0,0,1,5.71,5.71V332.09A5.71,5.71,0,0,1,237,337.8ZM43.91,55.2a5.46,5.46,0,0,0-5.45,5.46V332.09a5.46,5.46,0,0,0,5.45,5.46H237a5.47,5.47,0,0,0,5.46-5.46V60.66A5.47,5.47,0,0,0,237,55.2Z" style="fill:#ebebeb"></path><path d="M453.31,337.8H260.21a5.72,5.72,0,0,1-5.71-5.71V60.66A5.72,5.72,0,0,1,260.21,55h193.1A5.71,5.71,0,0,1,459,60.66V332.09A5.71,5.71,0,0,1,453.31,337.8ZM260.21,55.2a5.47,5.47,0,0,0-5.46,5.46V332.09a5.47,5.47,0,0,0,5.46,5.46h193.1a5.47,5.47,0,0,0,5.46-5.46V60.66a5.47,5.47,0,0,0-5.46-5.46Z" style="fill:#ebebeb"></path><rect x="364.54" y="86.47" width="48.73" height="59.99" style="fill:#f5f5f5"></rect><rect x="367.41" y="89.33" width="43" height="54.25" style="fill:#ebebeb"></rect><path d="M405.19,129.89v13.69H372.62V129.89A15.09,15.09,0,0,1,385.08,115a10.5,10.5,0,1,1,7.65,0A15.09,15.09,0,0,1,405.19,129.89Z" style="fill:#e0e0e0"></path><rect x="85.94" y="100.44" width="40.57" height="27.24" style="fill:#e0e0e0"></rect><polygon points="106.23 91.81 73.67 100.44 106.23 109.07 138.79 100.44 106.23 91.81" style="fill:#ebebeb"></polygon><path d="M123,121.31v-16.5a.72.72,0,0,0-.53-.69l-16.08-4.37a.72.72,0,0,0-.88.5.71.71,0,0,0,.5.88l15.56,4.23v15.93a1.93,1.93,0,1,0,1.43,0Z" style="fill:#f5f5f5"></path><polygon points="210.59 64.29 203.88 103.47 239.25 103.47 210.59 64.29" style="fill:#e0e0e0"></polygon><polygon points="264.66 103.47 216.45 103.47 210.59 64.29 258.8 64.29 264.66 103.47" style="fill:#f5f5f5"></polygon><polygon points="259.87 71.47 211.66 71.47 210.59 64.29 258.8 64.29 259.87 71.47" style="fill:#ebebeb"></polygon><polygon points="226.29 78.86 222.13 78.86 221.51 74.66 225.66 74.66 226.29 78.86" style="fill:#e0e0e0"></polygon><polygon points="232.62 78.86 228.46 78.86 227.84 74.66 231.99 74.66 232.62 78.86" style="fill:#e0e0e0"></polygon><polygon points="238.95 78.86 234.79 78.86 234.17 74.66 238.32 74.66 238.95 78.86" style="fill:#e0e0e0"></polygon><polygon points="245.28 78.86 241.12 78.86 240.5 74.66 244.65 74.66 245.28 78.86" style="fill:#e0e0e0"></polygon><polygon points="251.61 78.86 247.45 78.86 246.83 74.66 250.98 74.66 251.61 78.86" style="fill:#e0e0e0"></polygon><polygon points="257.94 78.86 253.78 78.86 253.16 74.66 257.31 74.66 257.94 78.86" style="fill:#e0e0e0"></polygon><polygon points="220.85 84.85 216.7 84.85 216.07 80.66 220.23 80.66 220.85 84.85" style="fill:#e0e0e0"></polygon><polygon points="227.19 84.85 223.03 84.85 222.4 80.66 226.56 80.66 227.19 84.85" style="fill:#e0e0e0"></polygon><polygon points="233.51 84.85 229.36 84.85 228.73 80.66 232.89 80.66 233.51 84.85" style="fill:#e0e0e0"></polygon><polygon points="239.84 84.85 235.69 84.85 235.06 80.66 239.22 80.66 239.84 84.85" style="fill:#e0e0e0"></polygon><polygon points="246.17 84.85 242.02 84.85 241.39 80.66 245.55 80.66 246.17 84.85" style="fill:#e0e0e0"></polygon><polygon points="252.5 84.85 248.35 84.85 247.72 80.66 251.88 80.66 252.5 84.85" style="fill:#e0e0e0"></polygon><polygon points="258.83 84.85 254.68 84.85 254.05 80.66 258.21 80.66 258.83 84.85" style="fill:#e0e0e0"></polygon><polygon points="221.75 90.85 217.6 90.85 216.97 86.65 221.12 86.65 221.75 90.85" style="fill:#e0e0e0"></polygon><polygon points="228.08 90.85 223.93 90.85 223.3 86.65 227.45 86.65 228.08 90.85" style="fill:#e0e0e0"></polygon><polygon points="234.41 90.85 230.26 90.85 229.63 86.65 233.78 86.65 234.41 90.85" style="fill:#e0e0e0"></polygon><polygon points="240.74 90.85 236.59 90.85 235.96 86.65 240.11 86.65 240.74 90.85" style="fill:#e0e0e0"></polygon><polygon points="247.07 90.85 242.92 90.85 242.29 86.65 246.44 86.65 247.07 90.85" style="fill:#e0e0e0"></polygon><polygon points="253.4 90.85 249.25 90.85 248.62 86.65 252.77 86.65 253.4 90.85" style="fill:#e0e0e0"></polygon><polygon points="259.73 90.85 255.58 90.85 254.95 86.65 259.1 86.65 259.73 90.85" style="fill:#e0e0e0"></polygon><polygon points="222.65 96.84 218.5 96.84 217.87 92.65 222.02 92.65 222.65 96.84" style="fill:#e0e0e0"></polygon><polygon points="228.98 96.84 224.82 96.84 224.2 92.65 228.35 92.65 228.98 96.84" style="fill:#e0e0e0"></polygon><polygon points="235.31 96.84 231.15 96.84 230.53 92.65 234.68 92.65 235.31 96.84" style="fill:#e0e0e0"></polygon><polygon points="241.64 96.84 237.48 96.84 236.86 92.65 241.01 92.65 241.64 96.84" style="fill:#e0e0e0"></polygon><polygon points="247.97 96.84 243.81 96.84 243.19 92.65 247.34 92.65 247.97 96.84" style="fill:#e0e0e0"></polygon><polygon points="254.3 96.84 250.14 96.84 249.51 92.65 253.67 92.65 254.3 96.84" style="fill:#e0e0e0"></polygon><rect x="409.78" y="227.74" width="40.85" height="56.49" rx="2.19" style="fill:#e0e0e0"></rect><rect x="403.99" y="222.18" width="40.85" height="56.49" rx="2.19" style="fill:#f5f5f5"></rect><path d="M437.72,231.07H411.11a1.32,1.32,0,0,1-1.33-1.33h0a1.33,1.33,0,0,1,1.33-1.33h26.61a1.33,1.33,0,0,1,1.33,1.33h0A1.32,1.32,0,0,1,437.72,231.07Z" style="fill:#ebebeb"></path><path d="M437.72,238H411.11a1.33,1.33,0,0,1-1.33-1.33h0a1.33,1.33,0,0,1,1.33-1.34h26.61a1.33,1.33,0,0,1,1.33,1.34h0A1.33,1.33,0,0,1,437.72,238Z" style="fill:#ebebeb"></path><path d="M437.72,244.86H411.11a1.32,1.32,0,0,1-1.33-1.33h0a1.33,1.33,0,0,1,1.33-1.33h26.61a1.33,1.33,0,0,1,1.33,1.33h0A1.32,1.32,0,0,1,437.72,244.86Z" style="fill:#ebebeb"></path><path d="M437.72,251.76H411.11a1.33,1.33,0,0,1-1.33-1.33h0a1.33,1.33,0,0,1,1.33-1.34h26.61a1.33,1.33,0,0,1,1.33,1.34h0A1.33,1.33,0,0,1,437.72,251.76Z" style="fill:#ebebeb"></path><path d="M437.72,258.65H411.11a1.32,1.32,0,0,1-1.33-1.33h0a1.32,1.32,0,0,1,1.33-1.33h26.61a1.32,1.32,0,0,1,1.33,1.33h0A1.32,1.32,0,0,1,437.72,258.65Z" style="fill:#ebebeb"></path><path d="M437.72,265.55H411.11a1.33,1.33,0,0,1-1.33-1.34h0a1.33,1.33,0,0,1,1.33-1.33h26.61a1.33,1.33,0,0,1,1.33,1.33h0A1.33,1.33,0,0,1,437.72,265.55Z" style="fill:#ebebeb"></path><path d="M431.72,272.44H411.11a1.33,1.33,0,0,1-1.33-1.33h0a1.32,1.32,0,0,1,1.33-1.33h20.61a1.32,1.32,0,0,1,1.33,1.33h0A1.33,1.33,0,0,1,431.72,272.44Z" style="fill:#ebebeb"></path><line x1="388.45" y1="149.08" x2="388.45" y2="151.58" style="fill:none;stroke:#ebebeb;stroke-linecap:round;stroke-linejoin:round;stroke-width:2px"></line><line x1="388.45" y1="156.45" x2="388.45" y2="192.98" style="fill:none;stroke:#ebebeb;stroke-linecap:round;stroke-linejoin:round;stroke-width:2px;stroke-dasharray:4.871620178222656,4.871620178222656"></line><polyline points="388.45 195.42 388.45 197.92 385.95 197.92" style="fill:none;stroke:#ebebeb;stroke-linecap:round;stroke-linejoin:round;stroke-width:2px"></polyline><line x1="380.97" y1="197.92" x2="293.85" y2="197.92" style="fill:none;stroke:#ebebeb;stroke-linecap:round;stroke-linejoin:round;stroke-width:2px;stroke-dasharray:4.978149890899658,4.978149890899658"></line><polyline points="291.36 197.92 288.86 197.92 288.86 200.42" style="fill:none;stroke:#ebebeb;stroke-linecap:round;stroke-linejoin:round;stroke-width:2px"></polyline><line x1="288.86" y1="205.73" x2="288.86" y2="213.7" style="fill:none;stroke:#ebebeb;stroke-linecap:round;stroke-linejoin:round;stroke-width:2px;stroke-dasharray:5.313360214233398,5.313360214233398"></line><polyline points="288.86 216.36 288.86 218.86 286.36 218.86" style="fill:none;stroke:#ebebeb;stroke-linecap:round;stroke-linejoin:round;stroke-width:2px"></polyline><line x1="280.83" y1="218.86" x2="272.52" y2="218.86" style="fill:none;stroke:#ebebeb;stroke-linecap:round;stroke-linejoin:round;stroke-width:2px;stroke-dasharray:5.537280082702637,5.537280082702637"></line><line x1="269.75" y1="218.86" x2="267.25" y2="218.86" style="fill:none;stroke:#ebebeb;stroke-linecap:round;stroke-linejoin:round;stroke-width:2px"></line><polyline points="428.12 289.48 428.12 308.09 288.86 308.09 288.86 249.09 269.09 249.09" style="fill:none;stroke:#ebebeb;stroke-linecap:round;stroke-linejoin:round;stroke-width:2px;stroke-dasharray:5"></polyline><polyline points="269.09 84.85 295.97 84.85 295.97 189.15 246.83 189.15" style="fill:none;stroke:#ebebeb;stroke-linecap:round;stroke-linejoin:round;stroke-width:2px;stroke-dasharray:5"></polyline><polyline points="132.38 116.49 157.13 116.49 157.13 220.08 194.47 220.08" style="fill:none;stroke:#ebebeb;stroke-linecap:round;stroke-linejoin:round;stroke-width:2px;stroke-dasharray:5"></polyline><polygon points="77.25 314.66 66.16 307.66 54.79 314.66 54.79 277.28 77.25 277.28 77.25 314.66" style="fill:#e0e0e0"></polygon><circle cx="66.02" cy="273.88" r="17.49" transform="translate(-174.33 126.9) rotate(-45)" style="fill:#f5f5f5"></circle><circle cx="66.02" cy="273.88" r="14.85" transform="translate(-174.33 126.9) rotate(-45)" style="fill:#ebebeb"></circle><polyline points="89.48 274.37 166.63 274.37 166.63 249.09 194.47 249.09" style="fill:none;stroke:#ebebeb;stroke-linecap:round;stroke-linejoin:round;stroke-width:2px;stroke-dasharray:5"></polyline></g><g id="freepik--Shadow--inject-20"><ellipse id="freepik--path--inject-20" cx="250" cy="416.24" rx="193.89" ry="11.32" style="fill:#f5f5f5"></ellipse></g><g id="freepik--Character--inject-20"><path d="M112.78,141.55s-5,1.85-6.58,8.7,2.62,21.63,3.29,28.62-7,21.16,12.93,22.45,22.81-53.09,13.58-56.89S112.78,141.55,112.78,141.55Z" style="fill:#263238"></path><path d="M135.06,145.22c5.56-2.62,7.94,15.48,6,28.54" style="fill:none;stroke:#263238;stroke-linecap:round;stroke-linejoin:round;stroke-width:0.5px"></path><path d="M182.33,137.91l2.37-6.52s-1-1.19,3.56-3.37,7.34-3.36,9.21-2.77,4.44,4.8,4.24,6.26S189.05,135,189.05,135l-1.78,5Z" style="fill:#e4897b"></path><path d="M143.78,171.25s21.76-6.53,25.32-9.87,13.63-28.22,13.63-28.22l7.31,3s-7.49,28.9-13.82,35.59-30.66,18.55-30.66,18.55Z" style="fill:#407BFF"></path><path d="M143.78,171.25s21.76-6.53,25.32-9.87,13.63-28.22,13.63-28.22l7.31,3s-7.49,28.9-13.82,35.59-30.66,18.55-30.66,18.55Z" style="fill:#fff;opacity:0.6000000000000001;isolation:isolate"></path><path d="M104.42,393.06l4.83,2.84a92.41,92.41,0,0,1,7.34-8.7h0c1.4-1.48,2.87-3.12,4.4-4.88,3.06-3.51,6.37-7.52,9.84-11.83l3.11-3.89C146,351.38,159.1,333.5,164,321.41c1.52-3.76,2.26-7,1.93-9.34-1-7.22-3.8-18.09-7-28.59-4.88-16.05-10.37-31.26-10.37-31.26l-13.49,22.85s4.14,9.87,7.91,20.38c3.71,10.32,7.06,21.27,5.82,24.12-.12.28-.27.61-.44,1-2.24,4.64-8.44,15.15-15.48,26.76l-2.15,3.53c-3.78,6.2-7.71,12.57-11.35,18.42-1.42,2.3-2.8,4.52-4.11,6.62C109.05,385.83,104.42,393.06,104.42,393.06Z" style="fill:#e4897b"></path><path d="M134.22,366.59c-6.38,8-12.51,15.3-17.07,20.6-.65-3.26-1.31-7.12-1.83-11.33,5.27-8.46,11.72-18.9,17.58-28.57A110.64,110.64,0,0,0,134.22,366.59Z" style="opacity:0.2;isolation:isolate"></path><path d="M110.14,300.47c1.67,11.39,4,21.71,5.6,27.86.93,3.69,1.56,5.87,1.56,5.87a308.47,308.47,0,0,0,2.06,35c.51,4.58,1.06,9,1.63,13.07,2.1,15.14,4.31,26,4.31,26l5.75-.75-.22-37.09-.12-19.66-.16-26.75-.06-4.66-.28-20.34-.41-30-20-9C107.12,271.47,108.12,286.75,110.14,300.47Z" style="fill:#e4897b"></path><path d="M163.66,300.66c-5.11,3.53-12,5.65-16.73,6.79-1.09-3.73-2.5-7.92-4-12-3.77-10.51-7.91-20.38-7.91-20.38l13.49-22.85s5.49,15.21,10.37,31.26C160.7,289.32,162.36,295.28,163.66,300.66Z" style="opacity:0.2;isolation:isolate"></path><path d="M130.38,311.66a185,185,0,0,1-18.59-1.34c-.58-3.13-1.15-6.44-1.65-9.85-2-13.72-3-29-.34-40.4l20,9,.41,30Z" style="opacity:0.2;isolation:isolate"></path><path d="M164.63,298.67c-12.51,7.35-49.31,10.47-49.31,10.47l-6-16.92L110,309h-1.79s-13.44-45.5,4.42-75.32l32-2.47,3.5,16.48S157.11,271.27,164.63,298.67Z" style="fill:#263238"></path><path d="M141.16,415.69a9.06,9.06,0,0,0-3.06-1.14h0s-3.54-2.63-6.34-11.68l-4.21-.48a3.49,3.49,0,0,0-3.48,2,1.9,1.9,0,0,0-.18.57,24,24,0,0,0,0,3.06,85.44,85.44,0,0,0,1.38,10.17l.74-.1-.62-6.42c-.2-2.18,1.82.12,2.63,2.39s2.16,4.6,6.92,4C140.49,417.39,142.76,416.85,141.16,415.69Z" style="fill:#2e353a"></path><path d="M130.6,399.67s1.5,4.09,3.5,8.59a19.58,19.58,0,0,0,4,6.29s-3.48,1.13-5.35-1.05-5.09-10.05-8.68-9.14a8.21,8.21,0,0,1,.8-1.83C125.41,401.64,130.6,399.67,130.6,399.67Z" style="fill:#e4897b"></path><path d="M105.93,412.14a8.93,8.93,0,0,0-1.18-3.06h0s-.37-4.39,4.55-12.48l-2.43-3.47a3.49,3.49,0,0,0-3.78-1.31,2.24,2.24,0,0,0-.55.24,24.72,24.72,0,0,0-2.3,2,85,85,0,0,0-6.7,7.78l.57.48,4.4-4.72c1.5-1.59,1.11,1.45-.05,3.55s-2,4.67,1.56,7.87C104.21,412.76,106.12,414.1,105.93,412.14Z" style="fill:#2e353a"></path><path d="M110.93,393.6s-2.07,3.84-4.12,8.32a19.7,19.7,0,0,0-2.06,7.16s-3.14-1.85-2.75-4.7,4.15-10.46,1.09-12.56a8.66,8.66,0,0,1,1.9-.61C106,391,110.93,393.6,110.93,393.6Z" style="fill:#e4897b"></path><polygon points="112.3 230.37 112.12 235.2 145.19 233.91 145.41 228.2 112.3 230.37" style="fill:#263238"></polygon><polygon points="112.3 230.37 112.12 235.2 145.19 233.91 145.41 228.2 112.3 230.37" style="fill:#fff;opacity:0.2;isolation:isolate"></polygon><rect x="121.87" y="228.77" width="1.64" height="8.35" transform="translate(-3.1 1.66) rotate(-0.77)" style="fill:#263238"></rect><rect x="130.63" y="228.95" width="7.24" height="5.49" transform="translate(-11.78 7.24) rotate(-2.96)" style="fill:#fff"></rect><rect x="142.1" y="227.31" width="1.64" height="8.35" transform="translate(-3.05 1.91) rotate(-0.76)" style="fill:#263238"></rect><path d="M103.32,232.41l7.56,4.32a8,8,0,0,1,4.15,3.59c1.85,3-.81,14.44-2.25,14.44s-9.57-1.78-9.46-3.36,3.26-9.1,3.26-9.1l-7.31-4.55Z" style="fill:#e4897b"></path><path d="M112.12,230.36s-2-29.32-8.8-46.08c0,0,14-7.52,40.46-13,0,0,7.58,18.45,1.63,57.27Z" style="fill:#407BFF"></path><circle cx="134.11" cy="201.32" r="0.94" style="fill:#fff;opacity:0.6000000000000001;isolation:isolate"></circle><path d="M136,212.7a.95.95,0,0,1-1.89,0,.95.95,0,1,1,1.89,0Z" style="fill:#fff;opacity:0.6000000000000001;isolation:isolate"></path><path d="M136,223.51a.95.95,0,0,1-1.89,0,.95.95,0,1,1,1.89,0Z" style="fill:#fff;opacity:0.6000000000000001;isolation:isolate"></path><path d="M103.32,184.28c-6.22,3.42-28.77,29.34-27,37.05s27,19.78,27,19.78l4.33-7.47s-16.52-12.31-17.31-14.29,18.18-16.9,18.18-16.9a66,66,0,0,0-.35-11.87A8.13,8.13,0,0,0,103.32,184.28Z" style="fill:#407BFF"></path><path d="M103.32,184.28c-6.22,3.42-28.77,29.34-27,37.05s27,19.78,27,19.78l4.33-7.47s-16.52-12.31-17.31-14.29,18.18-16.9,18.18-16.9a66,66,0,0,0-.35-11.87A8.13,8.13,0,0,0,103.32,184.28Z" style="fill:#fff;opacity:0.6000000000000001;isolation:isolate"></path><path d="M115,189.48s-6.33-10.34,7.52-13.91,18.07,4.75,18.07,4.75l-6.9-1.19-.87,16.49a26.46,26.46,0,0,0-14.57-12.14Z" style="fill:#407BFF"></path><path d="M115,189.48s-6.33-10.34,7.52-13.91,18.07,4.75,18.07,4.75l-6.9-1.19-.87,16.49a26.46,26.46,0,0,0-14.57-12.14Z" style="fill:#fff;opacity:0.6000000000000001;isolation:isolate"></path><path d="M130.73,187.51a90.45,90.45,0,0,1-13.3-7.65c3.25-3.06,2.66-7.58,1.83-10.4a16.16,16.16,0,0,0-1-2.6l9.57,1.79a27.54,27.54,0,0,0-.37,4,12.07,12.07,0,0,0,.27,3c.65,2.86,2.28,2.9,2.28,2.9C131.71,181.68,130.73,187.51,130.73,187.51Z" style="fill:#e4897b"></path><path d="M127.48,172.68a12.07,12.07,0,0,0,.27,3c-3.8-.5-6.68-3.54-8.49-6.18a16.16,16.16,0,0,0-1-2.6l9.57,1.79A27.54,27.54,0,0,0,127.48,172.68Z" style="opacity:0.2;isolation:isolate"></path><path d="M125.58,141.71c10.31,0,11.17,5,11.76,13.57.74,10.72-1.65,18.34-12.06,16C111.15,168.16,111.75,141.71,125.58,141.71Z" style="fill:#e4897b"></path><path d="M132,154.8a17.49,17.49,0,0,0,2.42,3.46,2.31,2.31,0,0,1-2.2.94Z" style="fill:#de5753"></path><path d="M126.87,154.11c0,.68-.35,1.24-.8,1.25s-.84-.53-.85-1.22.34-1.24.79-1.25S126.85,153.42,126.87,154.11Z" style="fill:#263238"></path><path d="M125.83,152.92l1.47-.61S126.59,153.58,125.83,152.92Z" style="fill:#263238"></path><path d="M135.37,153.79c0,.68-.35,1.24-.8,1.25s-.84-.54-.85-1.22.34-1.25.8-1.26S135.35,153.1,135.37,153.79Z" style="fill:#263238"></path><path d="M134.33,152.6l1.47-.61S135.09,153.25,134.33,152.6Z" style="fill:#263238"></path><path d="M126.8,148.36a4.35,4.35,0,0,0-3.62,1.25" style="fill:none;stroke:#263238;stroke-linecap:round;stroke-linejoin:round;stroke-width:0.707962px"></path><path d="M132.85,148a3.9,3.9,0,0,1,3.32.69" style="fill:none;stroke:#263238;stroke-linecap:round;stroke-linejoin:round;stroke-width:0.707962px"></path><path d="M116.62,156.23s3.91-6.84,3.33-12.12c0,0,5.88-6.06,13.79-.07,0,0,3.3,5.69,3.51,10.12,0,0,1.64-14.87-12.67-15.24s-14.3,20.58-6.92,26.84C117.66,165.76,114.2,160.5,116.62,156.23Z" style="fill:#263238"></path><path d="M118,158a3.65,3.65,0,0,0-3.93-3.35c-2.58.28-3.82,5.57,2.6,6.86C117.57,161.68,118.09,160.79,118,158Z" style="fill:#e4897b"></path><path d="M131.05,163.71s-3.49.79-4.93-2.33" style="fill:none;stroke:#263238;stroke-linecap:round;stroke-linejoin:round;stroke-width:0.707962px"></path><path d="M120,144.11s9.52-4.22,15.82,1.35c0,0,2.47-7.34-6-9.84s-17,5.93-17,5.93Z" style="fill:#263238"></path><path d="M120,144.11s-5.55,5.48-4.75,16.4-.25,17.81-2.42,24.64,3.51,8.87,3.51,8.87-6.47,1.6-7.8-5.33c-.88-4.54,1.2-14.38.16-26.1S111.78,142.58,120,144.11Z" style="fill:#263238"></path></g><g id="freepik--Clipboard--inject-20"><path d="M274.45,119.78a9.2,9.2,0,1,0,9.2,9.2A9.2,9.2,0,0,0,274.45,119.78Zm0,8.31a2.67,2.67,0,1,1,2.67-2.67A2.67,2.67,0,0,1,274.45,128.09Z" style="fill:#407BFF"></path><path d="M274.45,119.78a9.2,9.2,0,1,0,9.2,9.2A9.2,9.2,0,0,0,274.45,119.78Zm0,8.31a2.67,2.67,0,1,1,2.67-2.67A2.67,2.67,0,0,1,274.45,128.09Z" style="fill:#fff;opacity:0.6000000000000001;isolation:isolate"></path><rect x="175.92" y="131.86" width="197.05" height="286.3" rx="7.49" style="fill:#407BFF"></rect><rect x="186.35" y="148.5" width="176.19" height="256.04" style="fill:#fff;opacity:0.8;isolation:isolate"></rect><rect x="225.66" y="129.42" width="97.58" height="15.88" rx="1.93" style="fill:#407BFF"></rect><rect x="225.66" y="129.42" width="97.58" height="15.88" rx="1.93" style="fill:#fff;opacity:0.4;isolation:isolate"></rect><path d="M310.52,160.05H282.28a3.15,3.15,0,0,1-2.82-1.64,5.67,5.67,0,0,0-10,0,3.16,3.16,0,0,1-2.82,1.64H238.37a3,3,0,0,1-3-3V140.2a3,3,0,0,1,3-3h72.15a3,3,0,0,1,3,3V157A3,3,0,0,1,310.52,160.05Zm-36.07-6.65a7.64,7.64,0,0,1,6.77,4.07,1.19,1.19,0,0,0,1.06.58h28.24a1,1,0,0,0,1-1V140.2a1,1,0,0,0-1-1H238.37a1,1,0,0,0-1,1V157a1,1,0,0,0,1,1h28.26a1.18,1.18,0,0,0,1.05-.58A7.65,7.65,0,0,1,274.45,153.4Z" style="fill:#263238"></path><g style="opacity:0.2;isolation:isolate"><path d="M310.52,160.05H282.28a3.15,3.15,0,0,1-2.82-1.64,5.67,5.67,0,0,0-10,0,3.16,3.16,0,0,1-2.82,1.64H238.37a3,3,0,0,1-3-3V140.2a3,3,0,0,1,3-3h72.15a3,3,0,0,1,3,3V157A3,3,0,0,1,310.52,160.05Zm-36.07-6.65a7.64,7.64,0,0,1,6.77,4.07,1.19,1.19,0,0,0,1.06.58h28.24a1,1,0,0,0,1-1V140.2a1,1,0,0,0-1-1H238.37a1,1,0,0,0-1,1V157a1,1,0,0,0,1,1h28.26a1.18,1.18,0,0,0,1.05-.58A7.65,7.65,0,0,1,274.45,153.4Z" style="fill:#fff"></path></g><rect x="241.53" y="134.27" width="65.87" height="6.82" rx="1.16" style="fill:#407BFF"></rect><rect x="241.5" y="134.27" width="65.87" height="6.82" rx="1.16" style="fill:#fff;opacity:0.6000000000000001;isolation:isolate"></rect><rect x="273.01" y="288.34" width="17.8" height="17.8" style="opacity:0.30000000000000004;isolation:isolate"></rect><path d="M288.73,313.3H275.09a2.08,2.08,0,0,1-2.08-2.08h0a2.08,2.08,0,0,1,2.08-2.07h13.64a2.08,2.08,0,0,1,2.08,2.07h0A2.08,2.08,0,0,1,288.73,313.3Z" style="opacity:0.30000000000000004;isolation:isolate"></path><rect x="298.33" y="288.34" width="49.58" height="3.81" rx="1.9" style="opacity:0.30000000000000004;isolation:isolate"></rect><rect x="298.33" y="298.34" width="39.58" height="3.81" rx="1.9" style="opacity:0.30000000000000004;isolation:isolate"></rect><rect x="298.33" y="308.34" width="49.58" height="3.81" rx="1.9" style="opacity:0.30000000000000004;isolation:isolate"></rect><rect x="298.33" y="318.34" width="23.58" height="3.81" rx="1.9" style="opacity:0.30000000000000004;isolation:isolate"></rect><path d="M327.06,174.87H221.34a3.46,3.46,0,0,1-3.45-3.45h0a3.45,3.45,0,0,1,3.45-3.45H327.06a3.45,3.45,0,0,1,3.45,3.45h0A3.46,3.46,0,0,1,327.06,174.87Z" style="opacity:0.30000000000000004;isolation:isolate"></path><path d="M344.69,195.29H274.91a1.91,1.91,0,0,1-1.9-1.91h0a1.9,1.9,0,0,1,1.9-1.9h69.78a1.9,1.9,0,0,1,1.9,1.9h0A1.91,1.91,0,0,1,344.69,195.29Z" style="opacity:0.30000000000000004;isolation:isolate"></path><path d="M334.69,205.29H274.91a1.91,1.91,0,0,1-1.9-1.91h0a1.9,1.9,0,0,1,1.9-1.9h59.78a1.9,1.9,0,0,1,1.9,1.9h0A1.91,1.91,0,0,1,334.69,205.29Z" style="opacity:0.30000000000000004;isolation:isolate"></path><path d="M344.69,215.29H274.91a1.91,1.91,0,0,1-1.9-1.91h0a1.9,1.9,0,0,1,1.9-1.9h69.78a1.9,1.9,0,0,1,1.9,1.9h0A1.91,1.91,0,0,1,344.69,215.29Z" style="opacity:0.30000000000000004;isolation:isolate"></path><path d="M324.69,225.29H274.91a1.91,1.91,0,0,1-1.9-1.91h0a1.9,1.9,0,0,1,1.9-1.9h49.78a1.9,1.9,0,0,1,1.9,1.9h0A1.91,1.91,0,0,1,324.69,225.29Z" style="opacity:0.30000000000000004;isolation:isolate"></path><polygon points="278 237.21 279.1 239.43 281.56 239.79 279.78 241.52 280.2 243.97 278 242.81 275.81 243.97 276.23 241.52 274.45 239.79 276.9 239.43 278 237.21" style="opacity:0.30000000000000004;isolation:isolate"></polygon><polygon points="290.42 237.21 291.52 239.43 293.97 239.79 292.19 241.52 292.61 243.97 290.42 242.81 288.22 243.97 288.64 241.52 286.86 239.79 289.32 239.43 290.42 237.21" style="opacity:0.30000000000000004;isolation:isolate"></polygon><polygon points="302.83 237.21 303.93 239.43 306.39 239.79 304.61 241.52 305.03 243.97 302.83 242.81 300.63 243.97 301.05 241.52 299.28 239.79 301.73 239.43 302.83 237.21" style="opacity:0.30000000000000004;isolation:isolate"></polygon><polygon points="315.25 237.21 316.34 239.43 318.8 239.79 317.02 241.52 317.44 243.97 315.25 242.81 313.05 243.97 313.47 241.52 311.69 239.79 314.15 239.43 315.25 237.21" style="opacity:0.30000000000000004;isolation:isolate"></polygon><polygon points="327.66 237.21 328.76 239.43 331.21 239.79 329.44 241.52 329.86 243.97 327.66 242.81 325.46 243.97 325.88 241.52 324.11 239.79 326.56 239.43 327.66 237.21" style="opacity:0.30000000000000004;isolation:isolate"></polygon><polygon points="278 249.95 279.1 252.17 281.56 252.53 279.78 254.26 280.2 256.71 278 255.55 275.81 256.71 276.23 254.26 274.45 252.53 276.9 252.17 278 249.95" style="opacity:0.30000000000000004;isolation:isolate"></polygon><polygon points="290.42 249.95 291.52 252.17 293.97 252.53 292.19 254.26 292.61 256.71 290.42 255.55 288.22 256.71 288.64 254.26 286.86 252.53 289.32 252.17 290.42 249.95" style="opacity:0.30000000000000004;isolation:isolate"></polygon><polygon points="302.83 249.95 303.93 252.17 306.39 252.53 304.61 254.26 305.03 256.71 302.83 255.55 300.63 256.71 301.05 254.26 299.28 252.53 301.73 252.17 302.83 249.95" style="opacity:0.30000000000000004;isolation:isolate"></polygon><polygon points="315.25 249.95 316.34 252.17 318.8 252.53 317.02 254.26 317.44 256.71 315.25 255.55 313.05 256.71 313.47 254.26 311.69 252.53 314.15 252.17 315.25 249.95" style="opacity:0.1;isolation:isolate"></polygon><polygon points="327.66 249.95 328.76 252.17 331.21 252.53 329.44 254.26 329.86 256.71 327.66 255.55 325.46 256.71 325.88 254.26 324.11 252.53 326.56 252.17 327.66 249.95" style="opacity:0.1;isolation:isolate"></polygon><polygon points="278 262.69 279.1 264.91 281.56 265.27 279.78 267 280.2 269.45 278 268.29 275.81 269.45 276.23 267 274.45 265.27 276.9 264.91 278 262.69" style="opacity:0.30000000000000004;isolation:isolate"></polygon><polygon points="290.42 262.69 291.52 264.91 293.97 265.27 292.19 267 292.61 269.45 290.42 268.29 288.22 269.45 288.64 267 286.86 265.27 289.32 264.91 290.42 262.69" style="opacity:0.30000000000000004;isolation:isolate"></polygon><polygon points="302.83 262.69 303.93 264.91 306.39 265.27 304.61 267 305.03 269.45 302.83 268.29 300.63 269.45 301.05 267 299.28 265.27 301.73 264.91 302.83 262.69" style="opacity:0.30000000000000004;isolation:isolate"></polygon><polygon points="315.25 262.69 316.34 264.91 318.8 265.27 317.02 267 317.44 269.45 315.25 268.29 313.05 269.45 313.47 267 311.69 265.27 314.15 264.91 315.25 262.69" style="opacity:0.30000000000000004;isolation:isolate"></polygon><polygon points="327.66 262.69 328.76 264.91 331.21 265.27 329.44 267 329.86 269.45 327.66 268.29 325.46 269.45 325.88 267 324.11 265.27 326.56 264.91 327.66 262.69" style="opacity:0.1;isolation:isolate"></polygon><rect x="273.01" y="338.34" width="17.8" height="17.8" style="opacity:0.30000000000000004;isolation:isolate"></rect><path d="M288.73,363.3H275.09a2.08,2.08,0,0,1-2.08-2.08h0a2.08,2.08,0,0,1,2.08-2.07h13.64a2.08,2.08,0,0,1,2.08,2.07h0A2.08,2.08,0,0,1,288.73,363.3Z" style="opacity:0.30000000000000004;isolation:isolate"></path><rect x="298.33" y="338.34" width="49.58" height="3.81" rx="1.9" style="opacity:0.30000000000000004;isolation:isolate"></rect><rect x="298.33" y="348.34" width="39.58" height="3.81" rx="1.9" style="opacity:0.30000000000000004;isolation:isolate"></rect><rect x="298.33" y="358.34" width="49.58" height="3.81" rx="1.9" style="opacity:0.30000000000000004;isolation:isolate"></rect><rect x="298.33" y="368.34" width="23.58" height="3.81" rx="1.9" style="opacity:0.30000000000000004;isolation:isolate"></rect><rect x="197.47" y="191.48" width="64.18" height="85.22" style="fill:#fff"></rect><rect x="200.47" y="194.48" width="58.18" height="79.22" style="fill:#407BFF"></rect><rect x="200.47" y="194.48" width="58.18" height="79.22" style="fill:#fff;opacity:0.4;isolation:isolate"></rect><path d="M258.65,256V273.7h-4.52a23.45,23.45,0,0,0-4.11-3.13,9.68,9.68,0,0,0-2.28-1c-6.79-1.84,3-20,3-20h0C253,250.29,255.81,252.85,258.65,256Z" style="fill:#407BFF"></path><path d="M258.65,256V273.7h-4.52a23.45,23.45,0,0,0-4.11-3.13,9.68,9.68,0,0,0-2.28-1c-6.79-1.84,3-20,3-20h0C253,250.29,255.81,252.85,258.65,256Z" style="fill:#fff;opacity:0.6000000000000001;isolation:isolate"></path><path d="M258.65,273.64v.06h-4.52a23.45,23.45,0,0,0-4.11-3.13l1.34-8.37a19.49,19.49,0,0,1,3.45,3.72h0A25.47,25.47,0,0,1,258.65,273.64Z" style="opacity:0.2;isolation:isolate"></path><path d="M246.19,248.84c-.14.72-.28,1.45-.44,2.17s-.38,1.71-.59,2.56c-2.18,8.77-5.78,16.45-10.94,20.13H216.58c-5.13-2.61-6.11-7-5.94-11.6.11-3.11.75-6.28,1-9a16.75,16.75,0,0,0,0-2.82c-.13-1.42-.4-3.13-.73-5-1.53-8.71-4.52-21.28-3-27.73,1.81-7.84,7.53-10,7.53-10s1.94-.13,4.92-.11c2.2,0,5,.11,7.93.39l.21,0a58.08,58.08,0,0,1,9.73,1.72l.73.21c.63.19,1.26.39,1.87.61,0,0,0,0,0,0,.4.14.79.29,1.18.45h0a4,4,0,0,1,1.34.93C247.88,216.4,249,233.45,246.19,248.84Z" style="fill:#263238"></path><path d="M240.92,211.79c6.35-3,9.09,17.71,6.82,32.66" style="fill:none;stroke:#263238;stroke-linecap:round;stroke-linejoin:round;stroke-width:0.5px"></path><path d="M255.29,273.7H209.65c-.19-.86-.38-1.72-.58-2.57a103.37,103.37,0,0,0-4.47-14.62h0a42.5,42.5,0,0,1,5.84-2.89c.38-.17.77-.33,1.19-.49,1.58-.63,3.42-1.28,5.48-1.9l.66-.19c1.55-.45,3.22-.87,5-1.24h0a69.67,69.67,0,0,1,11.28-1.42s0,0,0,0a68.48,68.48,0,0,1,8.66.14h0c1.13.08,2.28.19,3.45.34,1.47.18,3,.41,4.51.7h0c.17.27,2.95,4.69,4.1,16.37h0C255.05,268.23,255.22,270.81,255.29,273.7Z" style="fill:#407BFF"></path><path d="M217.37,260.14s-5.22-12.86,11.08-14.31S248,254.54,248,254.54l-7.57-2.62-4,18.45A30.26,30.26,0,0,0,222.15,254Z" style="fill:#407BFF"></path><path d="M217.37,260.14s-5.22-12.86,11.08-14.31S248,254.54,248,254.54l-7.57-2.62-4,18.45A30.26,30.26,0,0,0,222.15,254Z" style="fill:#fff;opacity:0.6000000000000001;isolation:isolate"></path><path d="M235.75,262.2A67.21,67.21,0,0,0,221.58,251c3.9-3.3,3.5-8.5,2.72-11.77a18.66,18.66,0,0,0-1-3l10.83,2.62a31.81,31.81,0,0,0-.67,4.58,14.15,14.15,0,0,0,.13,3.4c.57,3.31,2.43,3.45,2.43,3.45C237.79,254,235.75,262.2,235.75,262.2Z" style="fill:#e4897b"></path><path d="M233.5,243.42a14.15,14.15,0,0,0,.13,3.4c-4.31-.8-7.42-4.45-9.33-7.57a18.66,18.66,0,0,0-1-3l10.83,2.62A31.81,31.81,0,0,0,233.5,243.42Z" style="opacity:0.2;isolation:isolate"></path><path d="M230.07,207.78c11.79,0,12.78,5.7,13.46,15.52.84,12.28-1.9,21-13.81,18.34C213.55,238.05,214.24,207.78,230.07,207.78Z" style="fill:#e4897b"></path><path d="M237.37,222.76a20.34,20.34,0,0,0,2.76,4,2.6,2.6,0,0,1-2.51,1.08Z" style="fill:#de5753"></path><path d="M231.54,222c0,.79-.39,1.43-.92,1.44s-1-.61-1-1.4.39-1.42.91-1.43S231.52,221.18,231.54,222Z" style="fill:#263238"></path><path d="M230.35,220.61l1.69-.71S231.22,221.35,230.35,220.61Z" style="fill:#263238"></path><path d="M241.27,221.59c0,.79-.39,1.43-.92,1.44s-1-.61-1-1.4.39-1.42.91-1.43S241.25,220.81,241.27,221.59Z" style="fill:#263238"></path><path d="M240.08,220.24l1.68-.7S241,221,240.08,220.24Z" style="fill:#263238"></path><path d="M231.46,215.38s-2.68-.35-4.14,1.43" style="fill:none;stroke:#263238;stroke-linecap:round;stroke-linejoin:round;stroke-width:0.707962px"></path><path d="M238.39,215a4.43,4.43,0,0,1,3.79.79" style="fill:none;stroke:#263238;stroke-linecap:round;stroke-linejoin:round;stroke-width:0.707962px"></path><path d="M219.82,224.39s4.47-7.82,3.81-13.87c0,0,6.72-6.93,15.77-.08,0,0,3.79,6.52,4,11.58,0,0,1.88-17-14.5-17.43S212.56,228.14,221,235.3C221,235.3,217.05,229.28,219.82,224.39Z" style="fill:#263238"></path><path d="M221.37,226.4a4.19,4.19,0,0,0-4.49-3.83c-3,.32-4.38,6.38,3,7.85C220.9,230.63,221.5,229.6,221.37,226.4Z" style="fill:#e4897b"></path><path d="M236.33,233s-4,.9-5.65-2.67" style="fill:none;stroke:#263238;stroke-linecap:round;stroke-linejoin:round;stroke-width:0.707962px"></path><path d="M223.63,210.52s10.89-4.83,18.1,1.55c0,0,2.83-8.4-6.83-11.27s-19.48,6.79-19.48,6.79Z" style="fill:#263238"></path><path d="M223.63,210.52s-6.36,6.27-5.44,18.76-.29,20.39-2.77,28.21,4,10.15,4,10.15-7.4,1.82-8.92-6.1c-1-5.2,1.38-16.46.18-29.87S214.27,208.77,223.63,210.52Z" style="fill:#263238"></path><path d="M211.76,273.7h-2.11c-.19-.86-.38-1.72-.58-2.57l1.59-1.39,0,0A32.74,32.74,0,0,1,211.76,273.7Z" style="opacity:0.2;isolation:isolate"></path><path d="M210.67,273.7h-10.2v-14a25.42,25.42,0,0,1,4.12-3.17h0a9.24,9.24,0,0,1,5.55,7.2,48.35,48.35,0,0,1,.51,6C210.7,271.16,210.69,272.53,210.67,273.7Z" style="fill:#407BFF"></path><path d="M210.67,273.7h-10.2v-14a25.42,25.42,0,0,1,4.12-3.17h0a9.24,9.24,0,0,1,5.55,7.2,48.35,48.35,0,0,1,.51,6C210.7,271.16,210.69,272.53,210.67,273.7Z" style="fill:#fff;opacity:0.6000000000000001;isolation:isolate"></path><rect x="197.47" y="286.63" width="64.18" height="85.1" style="opacity:0.30000000000000004;isolation:isolate"></rect><path d="M250.86,299.82H207.09a1.91,1.91,0,0,1-1.9-1.91h0a1.9,1.9,0,0,1,1.9-1.9h43.77a1.9,1.9,0,0,1,1.91,1.9h0A1.91,1.91,0,0,1,250.86,299.82Z" style="fill:#fff;opacity:0.30000000000000004;isolation:isolate"></path><rect x="205.19" y="306.65" width="47.58" height="3.81" rx="1.9" style="fill:#fff;opacity:0.30000000000000004;isolation:isolate"></rect><path d="M230.86,321.11H207.09a1.91,1.91,0,0,1-1.9-1.91h0a1.9,1.9,0,0,1,1.9-1.9h23.77a1.9,1.9,0,0,1,1.91,1.9h0A1.91,1.91,0,0,1,230.86,321.11Z" style="fill:#fff;opacity:0.30000000000000004;isolation:isolate"></path><path d="M250.86,331.75H207.09a1.9,1.9,0,0,1-1.9-1.9h0a1.91,1.91,0,0,1,1.9-1.91h43.77a1.91,1.91,0,0,1,1.91,1.91h0A1.9,1.9,0,0,1,250.86,331.75Z" style="fill:#fff;opacity:0.30000000000000004;isolation:isolate"></path><path d="M250.86,342.39H207.09a1.9,1.9,0,0,1-1.9-1.9h0a1.9,1.9,0,0,1,1.9-1.9h43.77a1.9,1.9,0,0,1,1.91,1.9h0A1.9,1.9,0,0,1,250.86,342.39Z" style="fill:#fff;opacity:0.30000000000000004;isolation:isolate"></path><path d="M220.86,353H207.09a1.9,1.9,0,0,1-1.9-1.9h0a1.9,1.9,0,0,1,1.9-1.91h13.77a1.9,1.9,0,0,1,1.91,1.91h0A1.9,1.9,0,0,1,220.86,353Z" style="fill:#fff;opacity:0.30000000000000004;isolation:isolate"></path><path d="M240.86,363.68H207.09a1.9,1.9,0,0,1-1.9-1.9h0a1.9,1.9,0,0,1,1.9-1.9h33.77a1.9,1.9,0,0,1,1.91,1.9h0A1.9,1.9,0,0,1,240.86,363.68Z" style="fill:#fff;opacity:0.30000000000000004;isolation:isolate"></path></g><g id="freepik--Plant--inject-20"><path d="M404.53,355.89a5.72,5.72,0,0,0-5.23.51c-4.85,2.77-6.88,14.15-7.73,23,.31-12.55,2.37-29.91,10.6-39.36l-.75-.65c-6.89,7.9-9.57,20.86-10.5,32.23-.13-4.84-.43-10.08-1.07-15.07.22-10.71,1.15-20.43,3.6-23.74l-.81-.6c-2.16,2.92-3.2,10.34-3.62,19-1.23-6.49-3.19-12-6.26-14.83l-.67.73c3.66,3.37,5.68,11.06,6.74,19.56,0,1.2,0,2.42-.05,3.64-.95-5-2.23-9.11-3.92-10.76-5.7-5.54-12.4-.08-12.46,0l.64.76c.24-.2,6.07-4.93,11.12,0,2.22,2.15,3.69,9.18,4.65,16.6.13,8.89.57,17.25.87,22.11,0,.77-.07,1.21-.07,1.25h.15c.11,1.68.19,2.76.21,3l.88-.07c0,.61.09,1,.1,1.15l1-.09c0-.08-.15-1.56-.26-4H392c0-.28.33-28.7,7.85-33a4.72,4.72,0,0,1,4.35-.45c4.4,1.82,6.75,10.24,6.77,10.33l1-.27C411.78,366.51,409.39,357.9,404.53,355.89Z" style="fill:#263238"></path><path d="M378.52,356.8c-4.37.31-7.75,6.22-7.9,6.47l.88.49c0-.06,3.26-5.69,7.09-6,1.61-.1,3.14.77,4.56,2.61,5.9,7.71,4.71,29.61,4.7,29.83l1,.06c0-.92,1.22-22.5-4.91-30.49C382.31,357.67,380.48,356.66,378.52,356.8Z" style="fill:#263238"></path><g style="opacity:0.2;isolation:isolate"><path d="M404.53,355.89a5.72,5.72,0,0,0-5.23.51c-4.85,2.77-6.88,14.15-7.73,23,.31-12.55,2.37-29.91,10.6-39.36l-.75-.65c-6.89,7.9-9.57,20.86-10.5,32.23-.13-4.84-.43-10.08-1.07-15.07.22-10.71,1.15-20.43,3.6-23.74l-.81-.6c-2.16,2.92-3.2,10.34-3.62,19-1.23-6.49-3.19-12-6.26-14.83l-.67.73c3.66,3.37,5.68,11.06,6.74,19.56,0,1.2,0,2.42-.05,3.64-.95-5-2.23-9.11-3.92-10.76-5.7-5.54-12.4-.08-12.46,0l.64.76c.24-.2,6.07-4.93,11.12,0,2.22,2.15,3.69,9.18,4.65,16.6.13,8.89.57,17.25.87,22.11,0,.77-.07,1.21-.07,1.25h.15c.11,1.68.19,2.76.21,3l.88-.07c0,.61.09,1,.1,1.15l1-.09c0-.08-.15-1.56-.26-4H392c0-.28.33-28.7,7.85-33a4.72,4.72,0,0,1,4.35-.45c4.4,1.82,6.75,10.24,6.77,10.33l1-.27C411.78,366.51,409.39,357.9,404.53,355.89Z" style="fill:#fff"></path><path d="M378.52,356.8c-4.37.31-7.75,6.22-7.9,6.47l.88.49c0-.06,3.26-5.69,7.09-6,1.61-.1,3.14.77,4.56,2.61,5.9,7.71,4.71,29.61,4.7,29.83l1,.06c0-.92,1.22-22.5-4.91-30.49C382.31,357.67,380.48,356.66,378.52,356.8Z" style="fill:#fff"></path></g><path d="M406.27,361.05s-3.91,1.44-2.75,4.85,13.54,9,13.54,9,5.19-4.75.43-12.48S406.38,358.61,406.27,361.05Z" style="fill:#263238"></path><path d="M389.25,354.56s4.17-.18,4.41,3.42-9,13.53-9,13.53-6.62-2.39-5.2-11.36S388.22,352.35,389.25,354.56Z" style="fill:#263238"></path><path d="M385.72,337.36s2.78-.3,2.56-2-10.81-6.05-17,1c0,0,4,6.86,9.78,6.95S385.72,337.36,385.72,337.36Z" style="fill:#263238"></path><path d="M390.9,333.25s-2.51,1.22-3.22-.34,6-10.85,15-8.17c0,0,.24,7.94-4.61,11.07S390.9,333.25,390.9,333.25Z" style="fill:#263238"></path><path d="M377.74,359.68s1.92-1.55-.15-2.31-12.23-.54-12.33,9.52c0,0,11.83,2,13.29-1.86S377.74,359.68,377.74,359.68Z" style="fill:#263238"></path><path d="M401.87,337.11s-1.92-1.55.15-2.31,12.23-.54,12.33,9.52c0,0-11.83,2-13.29-1.86S401.87,337.11,401.87,337.11Z" style="fill:#263238"></path><path d="M395.61,345.21s-.17-1.88,1.35-1.14,6.82,6.45,1.33,11.87c0,0-7.39-5.47-6.06-8.32S395.61,345.21,395.61,345.21Z" style="fill:#263238"></path><path d="M376,347.9s1.14-1.51-.53-1.69-9.21,1.82-7.46,9.33c0,0,9.17-.69,9.56-3.81S376,347.9,376,347.9Z" style="fill:#263238"></path><polygon points="407 418.16 375.54 418.16 372.15 383.72 410.4 383.72 407 418.16" style="fill:#407BFF"></polygon><polygon points="407 418.16 375.54 418.16 372.15 383.72 410.4 383.72 407 418.16" style="fill:#fff;opacity:0.2;isolation:isolate"></polygon><rect x="370.47" y="379.92" width="41.61" height="7.6" style="fill:#407BFF"></rect><rect x="370.47" y="379.92" width="41.61" height="7.6" style="fill:#fff;opacity:0.5;isolation:isolate"></rect></g></svg>
