<svg xmlns="http://www.w3.org/2000/svg" viewBox="0 0 500 500"><g id="freepik--background-complete--inject-55"><rect x="458.26" y="40.85" width="8.5" height="182.79" style="fill:#e0e0e0"></rect><rect x="334.94" y="42.26" width="122.03" height="181.63" rx="0.12" style="fill:#f5f5f5"></rect><path d="M458.26,225.3H333.65a.12.12,0,0,1-.12-.12V41a.12.12,0,0,1,.12-.12H458.26a.12.12,0,0,1,.13.12V225.18A.12.12,0,0,1,458.26,225.3Zm-121.78-2.82h119a.13.13,0,0,0,.12-.13V43.8a.12.12,0,0,0-.12-.12h-119a.12.12,0,0,0-.12.12V222.35A.12.12,0,0,0,336.48,222.48Z" style="fill:#ebebeb"></path><rect x="347.23" y="53.47" width="97.67" height="159.1" rx="0.12" style="fill:#fff"></rect><rect x="368.54" y="98.57" width="54.84" height="64.28" rx="0.06" style="fill:#ebebeb"></rect><path d="M419,155c.07.21-2.64,1.39-7.79.79a19,19,0,0,1-8.75-3.5,17.71,17.71,0,0,1-6.8-10.69A15.38,15.38,0,0,1,400.9,127a13.91,13.91,0,0,1,3.94-2.31,10.48,10.48,0,0,1,4.94-.56,8.65,8.65,0,0,1,4.93,2.15,6.43,6.43,0,0,1,1.94,5.75,9.37,9.37,0,0,1-2.7,4.93,17.77,17.77,0,0,1-4.14,3,22.64,22.64,0,0,1-9.85,2.82,19.62,19.62,0,0,1-10.5-2.39,19.06,19.06,0,0,1-7.73-8,16.26,16.26,0,0,1-1.39-11.22,16.68,16.68,0,0,1,5.91-9.24,14.71,14.71,0,0,1,5-2.51,12.37,12.37,0,0,1,5.58-.17,9.07,9.07,0,0,1,5.07,2.86,8.41,8.41,0,0,1,2,5.41,10.38,10.38,0,0,1-1.33,5.16,13.77,13.77,0,0,1-3.12,3.76,21.16,21.16,0,0,1-7.77,4.13,20,20,0,0,1-8.17.63,16.67,16.67,0,0,1-7.12-2.73,15.37,15.37,0,0,1-6.79-10.76,13,13,0,0,1,2.52-9.22,11,11,0,0,1,4.65-3.72c1.28-.49,2-.47,2-.35s-.58.46-1.61,1.15a12.24,12.24,0,0,0-3.63,3.89,11.58,11.58,0,0,0-1.48,7.88,12.9,12.9,0,0,0,6,8.46A14.88,14.88,0,0,0,390.54,127a17.57,17.57,0,0,0,6.24-3.53,7.68,7.68,0,0,0,2.91-5.84,4.2,4.2,0,0,0-3.75-4.15,8.11,8.11,0,0,0-3.59.17,10.26,10.26,0,0,0-3.38,1.77,12.35,12.35,0,0,0-4.27,6.8,11.92,11.92,0,0,0,1.05,8.15,14.72,14.72,0,0,0,5.9,6.13,15.22,15.22,0,0,0,8.12,1.89,18.43,18.43,0,0,0,8-2.18,13.83,13.83,0,0,0,3.19-2.25,5.34,5.34,0,0,0,1.62-2.63,2.32,2.32,0,0,0-.66-2.12,4.77,4.77,0,0,0-2.64-1.16,6.76,6.76,0,0,0-3.11.26,10,10,0,0,0-2.89,1.59A12.06,12.06,0,0,0,398.84,141a15.4,15.4,0,0,0,5.23,9.26,18.43,18.43,0,0,0,7.51,3.75C416.22,155.13,419,154.59,419,155Z" style="fill:#e0e0e0"></path><rect x="52.35" y="40.06" width="145.35" height="261.11" style="fill:#ebebeb"></rect><rect x="58.16" y="47.63" width="132.23" height="245.76" style="fill:#fafafa"></rect><polygon points="203.84 303.52 197.7 301.16 197.7 35.63 203.84 35.63 203.84 303.52" style="fill:#e0e0e0"></polygon><rect x="58.16" y="118.32" width="135.11" height="2.62" style="fill:#e0e0e0"></rect><rect x="58.16" y="176.85" width="135.11" height="2.62" style="fill:#e0e0e0"></rect><rect x="58.16" y="235.37" width="135.11" height="2.62" style="fill:#e0e0e0"></rect><rect x="33.91" y="206.65" width="180.72" height="6.68" transform="translate(-85.72 334.27) rotate(-90)" style="fill:#e0e0e0"></rect><rect x="83.62" y="47.63" width="3.03" height="72.01" style="fill:#e0e0e0"></rect><rect x="109.72" y="47.63" width="3.03" height="72.01" style="fill:#e0e0e0"></rect><rect x="135.83" y="47.63" width="3.03" height="72.01" style="fill:#e0e0e0"></rect><rect x="161.93" y="47.63" width="3.03" height="72.01" style="fill:#e0e0e0"></rect><rect x="46.2" y="35.63" width="6.15" height="267.15" style="fill:#e0e0e0"></rect><rect x="46.2" y="32.93" width="157.64" height="7.12" style="fill:#e0e0e0"></rect><rect x="41.84" y="304.39" width="166.17" height="6.64" style="fill:#e0e0e0"></rect><polygon points="197.7 301.16 208.01 304.39 41.84 304.39 52.35 301.16 197.7 301.16" style="fill:#ebebeb"></polygon><rect x="68" y="330.76" width="50.94" height="13.48" style="fill:#ebebeb"></rect><path d="M97.4,358.43s0-.09,0-.25,0-.4,0-.69c0-.63,0-1.52,0-2.65,0-2.33,0-5.67-.09-9.89l.16.16-50.94.1c.12-.11-.26.26.26-.26h0v13.47l-.26-.26,36.3.12,10.72.07,2.9,0h.75l.27,0h-.23l-.73,0-2.84,0-10.66.08-36.48.11h-.25v-.25c0-2.17,0-4.38,0-6.63V345h0l.26-.26,50.94.1h.16V345c0,4.26-.07,7.64-.09,10,0,1.12,0,2,0,2.62,0,.27,0,.49,0,.66A.89.89,0,0,1,97.4,358.43Z" style="fill:#e0e0e0"></path><rect x="257.48" y="35.8" width="50.94" height="13.48" style="fill:#ebebeb"></rect><path d="M286.89,63.47a.77.77,0,0,1,0-.25c0-.18,0-.41,0-.69,0-.63,0-1.52,0-2.65,0-2.33-.05-5.67-.08-9.89l.16.16-50.94.1c.11-.12-.26.26.25-.26h0V63.47l-.26-.26,36.31.12L283,63.4l2.9,0,.76,0,.27,0h-.24l-.73,0-2.84,0-10.66.08-36.48.11h-.25V56.84c0-1.13,0-2.26,0-3.4V50h0c.52-.52.15-.14.27-.26l50.94.1H287V50c0,4.26-.06,7.63-.08,10,0,1.12,0,2,0,2.62,0,.27,0,.49,0,.66A1.76,1.76,0,0,1,286.89,63.47Z" style="fill:#e0e0e0"></path><path d="M415.54,335.51a1.22,1.22,0,0,1,0-.24c0-.18,0-.41,0-.69,0-.64,0-1.52,0-2.66,0-2.32-.05-5.67-.09-9.88l.16.15-50.94.11.26-.26h0v6.82c0,2.25,0,4.47,0,6.63l-.25-.25,36.3.11,10.71.08,2.9,0,.76,0h.27l-.24,0-.72,0-2.85,0-10.65.07-36.48.12h-.26V322.06h0l.26-.26,50.94.1h.16V322c0,4.25-.07,7.63-.09,10,0,1.12,0,2,0,2.62,0,.27,0,.49,0,.66A1.31,1.31,0,0,1,415.54,335.51Z" style="fill:#e0e0e0"></path><path d="M422.45,322a.87.87,0,0,1,0-.26c0-.19,0-.43,0-.71,0-.67,0-1.57-.05-2.71,0-2.36-.06-5.7-.1-9.8l.19.19-30.61.07c-.23.23.31-.32.26-.26h0v3.5c0,1.16,0,2.3,0,3.43V322l-.25-.25,21.89.12,6.38.07,1.72,0,.62,0a3.67,3.67,0,0,1-.56,0l-1.67,0-6.32.07-22.06.11h-.25V322q0-3.15,0-6.54v-6.93h0l.26-.26,30.61.07h.18v.19c0,4.15-.07,7.53-.1,9.92,0,1.12,0,2,0,2.66S422.46,322.05,422.45,322Z" style="fill:#e0e0e0"></path><path d="M331.53,438.86a1.41,1.41,0,0,1,0-.25c0-.18,0-.41,0-.69,0-.63,0-1.52,0-2.65,0-2.33,0-5.67-.09-9.89l.16.16-50.94.1c.11-.12-.26.26.25-.26h0v13.46l-.25-.26,36.3.12,10.71.07,2.9,0,.76,0a.91.91,0,0,1,.27,0h-.24l-.73,0-2.84,0-10.66.07-36.47.12h-.26V425.4h0l.26-.26,50.94.1h.16v.16c0,4.26-.06,7.63-.08,10,0,1.12,0,2,0,2.62,0,.27,0,.49,0,.66A1.76,1.76,0,0,1,331.53,438.86Z" style="fill:#e0e0e0"></path><path d="M338.43,425.38s0-.09,0-.26,0-.43,0-.71c0-.66,0-1.57,0-2.7,0-2.37-.06-5.7-.1-9.81l.18.19-30.6.07c-.24.23.31-.31.26-.26h0v6.93q0,3.39,0,6.54l-.24-.25,21.89.12,6.38.07,1.72,0,.61,0a3.59,3.59,0,0,1-.55,0l-1.67,0-6.32.07-22.06.12h-.25v-.25c0-2.1,0-4.28,0-6.54v-6.93h0l.26-.26,30.6.08h.19v.18c0,4.15-.08,7.53-.1,9.92,0,1.12,0,2,0,2.66A5.43,5.43,0,0,1,338.43,425.38Z" style="fill:#e0e0e0"></path><path d="M395.18,429.55S389,386.87,389.49,362s0-52.77,0-52.77h2.86s-1.94,49.3.17,79,7.66,41.27,7.66,41.27h-5" style="fill:#e0e0e0"></path><path d="M413.67,261.24a7.41,7.41,0,0,0-2.61-3.81c-1.81-1.15-4.19-.68-6.21,0-8.65,3.06-16.31,19.17-19.8,27.65l11.47,38.67C417.23,304.57,420.82,279.36,413.67,261.24Z" style="fill:#e0e0e0"></path><path d="M410.39,259a1.82,1.82,0,0,1-.16.5c-.15.37-.34.84-.56,1.41-.51,1.22-1.21,3-2.06,5.19-1.69,4.39-3.84,10.53-5.76,17.44s-3.24,13.29-4.05,17.93c-.41,2.31-.72,4.19-.92,5.49q-.15.92-.24,1.5a.27.27,0,1,1-.1,0c0-.4.1-.9.16-1.51.14-1.31.4-3.2.77-5.53a165.38,165.38,0,0,1,3.92-18A167.09,167.09,0,0,1,407.3,266c.89-2.18,1.64-3.93,2.2-5.13l.64-1.37A2.26,2.26,0,0,1,410.39,259Z" style="fill:#ebebeb"></path><path d="M391.42,333.06c-10.76-5.95-17.09-17.13-17.69-29.4-.41-8.58,2.23-17,5.21-25.06a3.25,3.25,0,0,1,1.22-1.82c.9-.51,2,0,2.93.46,7.82,4.45,12.55,12.94,15.07,21.57a43.41,43.41,0,0,1,1.77,17.74,29.48,29.48,0,0,1-8.51,16.51" style="fill:#ebebeb"></path><path d="M391.42,333.06a1.93,1.93,0,0,1,0-.52c0-.39,0-.88,0-1.49,0-1.28-.06-3.15-.16-5.45a149.25,149.25,0,0,0-2-17.86c-1.19-6.92-2.64-13.13-3.71-17.61-.52-2.19-1-4-1.27-5.31q-.19-.87-.33-1.44a1.83,1.83,0,0,1-.08-.52,3.48,3.48,0,0,1,.17.49l.42,1.43c.35,1.24.84,3,1.42,5.27,1.15,4.47,2.65,10.67,3.85,17.61a130.44,130.44,0,0,1,1.86,17.93c.07,2.31.07,4.18,0,5.47,0,.6,0,1.09-.06,1.48A2.15,2.15,0,0,1,391.42,333.06Z" style="fill:#e0e0e0"></path><path d="M403.56,398.36c10.58,2.33,19.3,9.79,29.51,13.42,6.76,2.41,14.4,3.26,19.8,8-1.3-3.27-4.37-5.44-7.35-7.31a131.9,131.9,0,0,0-26.75-12.77c-4.81-1.66-10-3-14.92-1.68" style="fill:#ebebeb"></path><path d="M388.25,407.79c-13.26-.21-27.22-11.5-40.41-12.17,13.81-4.46,33.58-.82,40.41,12.17" style="fill:#ebebeb"></path><path d="M393.43,376c6.73-2.43,14.12-2.54,21.2-1.44s13.9,3.36,20.69,5.62c-.68-4.6-4.41-8.06-7.91-11.12a55.8,55.8,0,0,0-8.31-6.39,18.62,18.62,0,0,0-10-2.81,15.77,15.77,0,0,0-11,5.55A18.3,18.3,0,0,0,393.43,376" style="fill:#ebebeb"></path><path d="M366.22,361.35c-8.34-7.12-21-6.43-32-6.18a260.14,260.14,0,0,1,49.56,30.88C384.27,378.3,376.76,370.35,366.22,361.35Z" style="fill:#455a64"></path><path d="M366.22,361.35c-8.34-7.12-21-6.43-32-6.18a260.14,260.14,0,0,1,49.56,30.88C384.27,378.3,376.76,370.35,366.22,361.35Z" style="fill:#ebebeb"></path><path d="M397.18,351.52A92.5,92.5,0,0,1,410,344.06c4.39-2,8.49-5.18,12.73-7.48,5.5-3,10.27-7.12,15.32-10.81s10.59-7,16.77-8a32.89,32.89,0,0,0-15.26.88,98,98,0,0,0-14.37,5.59c-6.51,2.93-13.14,5.94-18.46,10.7s-10.13,9.46-9.57,16.58" style="fill:#ebebeb"></path><path d="M432.83,407.79s-.15-.05-.42-.18l-1.16-.6c-1-.53-2.43-1.32-4.23-2.22-.9-.48-1.89-1-3-1.47s-2.22-1.05-3.44-1.58a50.39,50.39,0,0,0-8.17-2.85,17.7,17.7,0,0,0-8.5-.21,23.23,23.23,0,0,0-3.61,1.08,18.24,18.24,0,0,0-2.9,1.49,18.52,18.52,0,0,0-3.66,3c-.77.82-1.14,1.33-1.18,1.3a1.94,1.94,0,0,1,.24-.39c.17-.25.44-.6.8-1a17.3,17.3,0,0,1,3.61-3.18,18.48,18.48,0,0,1,2.95-1.58,23,23,0,0,1,3.65-1.13,17.67,17.67,0,0,1,8.71.17,48.57,48.57,0,0,1,8.23,2.91c1.23.54,2.38,1.08,3.44,1.63s2.06,1,2.94,1.52c1.79.95,3.2,1.78,4.17,2.36l1.12.68A1.93,1.93,0,0,1,432.83,407.79Z" style="fill:#e0e0e0"></path><path d="M378.36,401.22a3.06,3.06,0,0,1,.83.25,17.13,17.13,0,0,1,2.16.93,26.67,26.67,0,0,1,6.34,4.5,26.24,26.24,0,0,1,4.74,6.15,18,18,0,0,1,1,2.12,2.86,2.86,0,0,1,.28.82c-.08,0-.57-1.09-1.59-2.78A29.45,29.45,0,0,0,381.2,402.7C379.47,401.75,378.33,401.3,378.36,401.22Z" style="fill:#e0e0e0"></path><path d="M349,360.69a2.4,2.4,0,0,1,.56.16l1.59.57,2.51.92c1,.37,2,.9,3.24,1.43a76.59,76.59,0,0,1,17.26,11,82,82,0,0,1,8.05,7.93,90.36,90.36,0,0,1,5.72,7.23c1.51,2.15,2.66,3.93,3.44,5.17.38.58.68,1,.91,1.42a2.07,2.07,0,0,1,.29.51,2.56,2.56,0,0,1-.37-.45c-.23-.31-.57-.77-1-1.38-.83-1.2-2-3-3.57-5.07s-3.48-4.55-5.76-7.14a89.87,89.87,0,0,0-8-7.86,80.61,80.61,0,0,0-17.1-11.05c-1.19-.55-2.23-1.11-3.2-1.49l-2.47-1-1.56-.65A3.22,3.22,0,0,1,349,360.69Z" style="fill:#e0e0e0"></path><path d="M413.32,368.54a4.72,4.72,0,0,1-1.05-.14l-1.22-.22c-.48-.1-1-.1-1.63-.16a16.52,16.52,0,0,0-13.26,4.87,18.76,18.76,0,0,0-2.66,3.3,30.36,30.36,0,0,0-1.83,3.48,4.31,4.31,0,0,1,.27-1,15.33,15.33,0,0,1,1.27-2.62,18,18,0,0,1,2.64-3.42,16.31,16.31,0,0,1,4.24-3.19,16.1,16.1,0,0,1,9.36-1.71,15.43,15.43,0,0,1,1.64.23l1.22.3A4.84,4.84,0,0,1,413.32,368.54Z" style="fill:#e0e0e0"></path><path d="M426.65,327.2a3.06,3.06,0,0,1-.5.31l-1.48.8c-1.29.7-3.14,1.72-5.39,3s-4.87,3-7.68,5a63.72,63.72,0,0,0-8.57,7.19,21.36,21.36,0,0,0-3.51,4.54c-.87,1.66-1.7,3.28-2.46,4.82a86,86,0,0,0-3.69,8.39,50.46,50.46,0,0,0-1.79,5.9c-.34,1.42-.46,2.22-.51,2.21a4.17,4.17,0,0,1,.06-.58c0-.38.12-.95.27-1.67a43.35,43.35,0,0,1,1.66-6,80,80,0,0,1,3.6-8.47c.76-1.56,1.58-3.17,2.45-4.85a21.89,21.89,0,0,1,3.58-4.65,60.91,60.91,0,0,1,8.66-7.21c2.83-2,5.5-3.62,7.76-4.93s4.16-2.28,5.47-2.92l1.52-.72A2.62,2.62,0,0,1,426.65,327.2Z" style="fill:#e0e0e0"></path><path d="M389.47,367.34a5.6,5.6,0,0,1-.26-1.11c-.16-.82-.35-1.85-.58-3.07a78.65,78.65,0,0,0-6.29-19.48l-1.3-2.84a4.92,4.92,0,0,1-.42-1.07,5.46,5.46,0,0,1,.59,1c.35.64.85,1.59,1.43,2.77a70.48,70.48,0,0,1,3.93,9.54,68.83,68.83,0,0,1,2.39,10c.21,1.31.36,2.36.43,3.1A5.71,5.71,0,0,1,389.47,367.34Z" style="fill:#e0e0e0"></path><path d="M388.51,337.18a35.87,35.87,0,0,0-4.31-14.31,47.21,47.21,0,0,0-32-23.88l29.65,44.19,3.82,7.88C388.27,346.78,388.85,342.19,388.51,337.18Z" style="fill:#e0e0e0"></path><rect x="362.1" y="424.27" width="68.94" height="12.22" style="fill:#ebebeb"></rect><polygon points="367.25 434.06 373.12 471.98 418.89 471.98 425.89 434.06 367.25 434.06" style="fill:#ebebeb"></polygon><path d="M431,436.5c0,.14-15.55.25-34.73.25s-34.73-.11-34.73-.25,15.55-.24,34.73-.24S431,436.37,431,436.5Z" style="fill:#e0e0e0"></path><path d="M127.57,408.06c4.05-2.37,8.93-2.9,13.59-2.39,2.51.28,5.13.89,6.92,2.66s2.28,5,.43,6.74a6.44,6.44,0,0,1-4.2,1.31c-3.62.15-7.67-.27-10.44,2.05-1.58,1.33-2.57,3.46-4.51,4.17a4.65,4.65,0,0,1-5.24-2,8,8,0,0,1-.9-5.84A9,9,0,0,1,127.57,408.06Z" style="fill:#ebebeb"></path><path d="M117.53,398.83c2.73,3.5,7.61,2,9.79-.3s3-5.61,3.69-8.72c1.64-7.11,3.28-14.57,1.41-21.62a12,12,0,0,0-3.06-5.69,6.24,6.24,0,0,0-6-1.65c-2.46.79-3.88,3.31-4.87,5.69a51.39,51.39,0,0,0-3.9,22.25c.18,3.54.79,7.23,3,10" style="fill:#ebebeb"></path><path d="M110.82,404.42c2.59-3.43,2.86-8.24,1.41-12.28a23.57,23.57,0,0,0-7.76-10.07,38.83,38.83,0,0,0-13.31-6.92,13.79,13.79,0,0,0-5.86-.68,6.09,6.09,0,0,0-4.71,3.2c-1.22,2.67.25,5.74,1.79,8.23a98.71,98.71,0,0,0,9.16,12.45c2.72,3.14,5.8,6.22,9.75,7.49s8,.89,9.87-1.91" style="fill:#ebebeb"></path><path d="M119.81,445a9.12,9.12,0,0,0,.14-1.67c0-1.21.12-2.72.2-4.53a64.54,64.54,0,0,1,.66-6.66,52,52,0,0,1,2-7.93,28.7,28.7,0,0,1,3.61-7.27,15,15,0,0,1,4.81-4.45,14.27,14.27,0,0,1,4.17-1.55,7.58,7.58,0,0,0,1.63-.32,7.82,7.82,0,0,0-1.67.06,12.94,12.94,0,0,0-4.36,1.39,14.76,14.76,0,0,0-5.09,4.5,28.37,28.37,0,0,0-3.75,7.42,47.78,47.78,0,0,0-2,8.06,53.65,53.65,0,0,0-.52,6.74c0,1.92,0,3.47,0,4.54A7.79,7.79,0,0,0,119.81,445Z" style="fill:#e0e0e0"></path><path d="M120.39,450.17a2.73,2.73,0,0,0,0-.77c0-.58-.08-1.3-.12-2.19-.11-1.9-.26-4.66-.34-8.06-.19-6.8,0-14.14.59-24.51.55-9.76,1.39-21.11,2.52-28.53.23-1.68.48-3.2.72-4.53s.41-2.49.61-3.42.29-1.59.4-2.15a3.64,3.64,0,0,0,.09-.77,3.8,3.8,0,0,0-.23.74c-.14.56-.31,1.26-.52,2.13s-.47,2.07-.73,3.4-.55,2.84-.82,4.53a247.53,247.53,0,0,0-2.83,26.49c-.58,10.39-.59,19.82-.28,26.64.14,3.41.36,6.16.55,8.06.1.88.18,1.61.25,2.18A4.32,4.32,0,0,0,120.39,450.17Z" style="fill:#e0e0e0"></path><path d="M119.47,432a14,14,0,0,0-.13-2.29c-.17-1.46-.48-3.58-1-6.16a83.25,83.25,0,0,0-2.5-8.92,74.45,74.45,0,0,0-4.35-10.49,56.77,56.77,0,0,0-12-16.69,27.67,27.67,0,0,0-2.73-2.28c-.42-.32-.8-.64-1.17-.89l-1-.64a14.54,14.54,0,0,0-2-1.13,65.57,65.57,0,0,1,6.61,5.3,59.89,59.89,0,0,1,11.73,16.63,84.8,84.8,0,0,1,4.37,10.39c1.16,3.27,2,6.28,2.62,8.83s1,4.64,1.23,6.09A17.54,17.54,0,0,0,119.47,432Z" style="fill:#e0e0e0"></path><polygon points="102.01 442.07 103.83 467.01 135.87 467.01 137.69 442.07 102.01 442.07" style="fill:#e0e0e0"></polygon><rect x="98.92" y="432.24" width="42.6" height="9.83" style="fill:#e0e0e0"></rect><polygon points="98.92 466.06 98.92 468.78 100.92 468.78 140.81 468.78 140.81 466.06 98.92 466.06" style="fill:#ebebeb"></polygon><polygon points="102.88 473.58 100.92 468.78 139.29 468.78 137 473.58 102.88 473.58" style="fill:#e0e0e0"></polygon><path d="M137.1,450.22s0,.09-.15.23l-.48.64-1.87,2.39-.08.1-.08-.11-4.59-6.34h.27l-4.52,6.39-.14.2-.16-.19L120,447.16h.31l-.3.37-4.78,6-.16.2-.15-.21-4.52-6.39h.26l-5.56,6.34-.1.11-.07-.12c-.74-1.23-1.32-2.22-1.74-2.93l-.45-.78a1.13,1.13,0,0,1-.14-.28,1.65,1.65,0,0,1,.19.25l.49.75,1.83,2.87h-.17l5.47-6.41.14-.17.12.18,4.56,6.36h-.3l4.77-6,.3-.37.15-.19.15.19,5.34,6.38h-.3l4.56-6.36.14-.19.13.19c1.8,2.58,3.34,4.77,4.49,6.41h-.17l1.95-2.33.52-.6A1.17,1.17,0,0,1,137.1,450.22Z" style="fill:#f5f5f5"></path><path d="M138.14,441.91c0,.11-8,.2-17.93.2s-17.93-.09-17.93-.2,8-.2,17.93-.2S138.14,441.8,138.14,441.91Z" style="fill:#f5f5f5"></path><path d="M139.76,469.05c0,.11-8.73.2-19.49.2s-19.49-.09-19.49-.2,8.73-.2,19.49-.2S139.76,468.94,139.76,469.05Z" style="fill:#f5f5f5"></path></g><g id="freepik--Floor--inject-55"><path d="M463.49,472.43c0,.15-95.61.26-213.52.26s-213.54-.11-213.54-.26,95.59-.26,213.54-.26S463.49,472.29,463.49,472.43Z" style="fill:#263238"></path></g><g id="freepik--Plant--inject-55"><path d="M278.15,331.36a109.91,109.91,0,0,0,10.33,6.16c1.4.73,3.19,1.41,4.45.47-4.77-3.66-9.72-7.55-12.55-12.78,3.66-9.09,10-20.22,20.91-26.34,0,0,.35-.18,1-.47a31.87,31.87,0,0,1,3.19,6.72c1.28,3.57,2.37,7.27,4.47,10.43.7-.87.44-2.13.14-3.2l-4.38-15.49A109.86,109.86,0,0,1,320,291.78l4.44,10.29c.8-.79.63-2.08.48-3.19a28.66,28.66,0,0,1,0-8.22,25.58,25.58,0,0,1,8-.35c7.7,1.14,12.28,4.45,11.84,9.4a94.8,94.8,0,0,0-12.5-.31,53.05,53.05,0,0,0,12.16,2,16,16,0,0,1-2.9,5.21c-1.71,2.16-3.15,3.75-4.5,5.18a47.35,47.35,0,0,0-20.62-.33c2.16,1.38,4.95,1,7.52.92a25.7,25.7,0,0,1,10.59,2.05c-3.14,3.33-6.36,7.14-12.08,17.08l-2.6,4.5a10.68,10.68,0,0,1-5.05,1.65,25.39,25.39,0,0,1-7.45-.8c-.49-.1-1.17-.1-1.29.38s.58.83,1.11.9a33.63,33.63,0,0,1,5.11.73,7,7,0,0,1,4.18,2.83h0c-4.82,7.81-9.64,14-16,16.95a21.18,21.18,0,0,1-7.1-3.24,11.32,11.32,0,0,0,3.56,4.46,21.36,21.36,0,0,1-6.92.47c-15.45-1.38-15.3-17.52-12.53-26.68C277.64,333,277.89,332.19,278.15,331.36Z" style="fill:#263238"></path><path d="M272,381.65a1.9,1.9,0,0,1,0-.28c0-.22.07-.48.12-.82.13-.71.23-1.78.55-3.13a62.88,62.88,0,0,1,3.88-11,131.92,131.92,0,0,1,8.28-15.2c3.45-5.53,7.54-11.42,12-17.46,2.24-3,4.47-5.93,6.65-8.73s4.24-5.51,6.32-8a72.67,72.67,0,0,1,6.23-6.86l6.14-5.22c3.73-3.22,6.84-5.72,9.08-7.33,1.11-.81,2-1.41,2.61-1.8l.7-.44c.16-.09.24-.14.25-.13a1.19,1.19,0,0,1-.22.18l-.67.48c-.59.42-1.46,1-2.55,1.87-2.2,1.66-5.27,4.2-9,7.45l-6.09,5.26a72.17,72.17,0,0,0-6.15,6.84c-2.06,2.52-4.12,5.25-6.29,8.05s-4.39,5.71-6.63,8.72c-4.48,6-8.57,11.9-12,17.4a137.19,137.19,0,0,0-8.36,15.1,66.83,66.83,0,0,0-4,10.9c-.35,1.33-.49,2.39-.65,3.1-.07.33-.13.59-.17.8A.92.92,0,0,1,272,381.65Z" style="fill:#263238"></path><path d="M269.93,357c.07.05-.64,1.12-1.47,3a51.07,51.07,0,0,0-2.6,7.66c-.8,3.07-1.34,5.89-1.66,7.95s-.43,3.33-.51,3.33a3.63,3.63,0,0,1,0-.91c0-.59.06-1.43.18-2.47a57.53,57.53,0,0,1,1.51-8,41.51,41.51,0,0,1,2.77-7.69,17.2,17.2,0,0,1,1.24-2.15C269.7,357.22,269.9,357,269.93,357Z" style="fill:#263238"></path><path d="M291.18,311.18A54.77,54.77,0,0,0,274.91,324l3.73,6.12s-4.33-2.22-6.18-3.12a57,57,0,0,0-7.55,13.24,12.85,12.85,0,0,0,1.27,1.17l3.48,2.92c.5.41,1,1.1.65,1.61a1.26,1.26,0,0,1-1.2.29,24.25,24.25,0,0,1-5.82-1.41,53.79,53.79,0,0,0-1.9,8.88c-.67,5.4-.33,11.44,3.36,15.42,0,0,.5-5.51,11-22.34s34.91-36.28,34.91-36.28C305.2,306.29,297.29,308.07,291.18,311.18Z" style="fill:#455a64"></path><path d="M271,354.08a35.82,35.82,0,0,1-4.71-.58,34.38,34.38,0,0,1-4.68-.71,24.66,24.66,0,0,1,9.39,1.29Z" style="fill:#263238"></path><path d="M279.45,341.49a42.57,42.57,0,0,1-6-2.95,43.41,43.41,0,0,1-5.8-3.4,43.73,43.73,0,0,1,6,2.94A43.58,43.58,0,0,1,279.45,341.49Z" style="fill:#263238"></path><path d="M279.93,338.16a21.33,21.33,0,0,1-4.33-2,22.83,22.83,0,0,1-4.09-2.5,21.33,21.33,0,0,1,4.33,2A23.3,23.3,0,0,1,279.93,338.16Z" style="fill:#263238"></path><path d="M281.77,322a58,58,0,0,1,6.81,8.69,59.42,59.42,0,0,1-6.81-8.69Z" style="fill:#263238"></path><path d="M287.47,318.23c.15,0,.7,2.23,1.9,4.82s2.56,4.48,2.43,4.58a16.94,16.94,0,0,1-4.33-9.4Z" style="fill:#263238"></path><path d="M293.45,318.58a7.24,7.24,0,0,1,1.49,2.31,7.48,7.48,0,0,1,1,2.55,7.44,7.44,0,0,1-1.49-2.31A7.66,7.66,0,0,1,293.45,318.58Z" style="fill:#263238"></path><path d="M298.81,316.79c.11-.07.56.42.84,1.18s.25,1.42.11,1.44-.35-.57-.6-1.26S298.68,316.87,298.81,316.79Z" style="fill:#263238"></path><path d="M242.8,382.54a4.11,4.11,0,0,1-.11-.81c-.05-.58-.11-1.35-.2-2.32-.17-2-.47-4.92-1-8.49a102.66,102.66,0,0,0-7.7-27,76.85,76.85,0,0,0-15.89-23.05,66.25,66.25,0,0,0-6.44-5.6c-.79-.63-1.45-1.06-1.87-1.39a4.85,4.85,0,0,1-.64-.5,4.27,4.27,0,0,1,.7.42c.44.3,1.12.7,1.93,1.31a61.07,61.07,0,0,1,6.58,5.49,74.82,74.82,0,0,1,16.1,23.1,98.81,98.81,0,0,1,7.59,27.17c.48,3.59.72,6.51.84,8.53.07,1,.08,1.79.1,2.33S242.81,382.54,242.8,382.54Z" style="fill:#263238"></path><path d="M171.82,271.62c9-2.3,12.16,1.08,19.78,2.82,12,2.75,24,5.9,33,12S239.3,302,236.8,313a22.12,22.12,0,0,1-11.56,14.75,26.65,26.65,0,0,1-13.32,2.32c-11.87-.73-20.41-6.55-27.6-12.76a133.93,133.93,0,0,1-19.41-20.66c-2.31-3.07-4.5-6.28-5.18-10.1a13.8,13.8,0,0,1,1.16-8.22,11,11,0,0,1,6.48-5.23Z" style="fill:#263238"></path><path d="M251.48,344.72a1.09,1.09,0,0,1-.07-.32c0-.25-.09-.56-.16-1l-.54-3.69c-.48-3.2-1.08-7.85-1.78-13.6-1.41-11.49-3-27.41-4.62-45s-3.16-33.51-4.47-45c-.66-5.75-1.21-10.4-1.62-13.61-.19-1.58-.34-2.82-.45-3.7l-.1-1a1.62,1.62,0,0,1,0-.33,1.12,1.12,0,0,1,.07.33c0,.24.09.56.16.95l.54,3.69c.48,3.21,1.08,7.85,1.78,13.6,1.41,11.49,3,27.41,4.62,45s3.16,33.5,4.47,45c.66,5.75,1.21,10.4,1.62,13.61.19,1.58.34,2.82.45,3.7l.1,1A1.64,1.64,0,0,1,251.48,344.72Z" style="fill:#263238"></path><path d="M197.9,84.89c12.16,3.5,14.11,12.31,22.33,21.94,13,15.2,25.69,31.09,33.07,49.66s8.83,40.44-.55,58.08c-4.59,8.63-12.7,16.43-22.48,16.59-6.43.11-12.5-3.11-17.47-7.19-14-11.44-20.94-29.18-26.07-46.47a366.51,366.51,0,0,1-11.6-53.63c-1-7.48-1.83-15.12-.45-22.54a30.63,30.63,0,0,1,6.14-13.77,11.29,11.29,0,0,1,10.86-3.85Z" style="fill:#455a64"></path><path d="M187.57,93.61s.07.11.18.32.29.57.5,1l1.87,3.75c1.62,3.26,3.91,8,6.67,13.89,5.53,11.77,12.84,28.2,20.24,46.62s13.45,35.36,17.6,47.69c2.07,6.17,3.7,11.17,4.78,14.65.53,1.71,1,3.05,1.24,4l.31,1,.09.36a1.26,1.26,0,0,1-.14-.34l-.36-1c-.32-.94-.76-2.27-1.33-4-1.14-3.46-2.82-8.44-4.94-14.59-4.23-12.29-10.35-29.19-17.74-47.61s-14.65-34.85-20.09-46.67c-2.71-5.9-4.94-10.67-6.51-14L188.16,95c-.19-.42-.34-.75-.46-1A1.34,1.34,0,0,1,187.57,93.61Z" style="fill:#263238"></path><path d="M254.5,377a2.41,2.41,0,0,1-.07-.37c0-.27-.09-.64-.15-1.09-.13-1-.31-2.41-.54-4.21s-.5-4.06-.75-6.67-.6-5.56-.86-8.84-.59-6.87-.83-10.74-.47-8-.68-12.34c-.36-8.69-.56-18.26-.48-28.31s.52-19.62,1.05-28.31c.31-4.34.57-8.47.94-12.32s.69-7.45,1-10.72.72-6.23,1-8.83.62-4.82.89-6.64.47-3.21.62-4.2c.07-.45.13-.81.17-1.09A2.2,2.2,0,0,1,256,232a2.07,2.07,0,0,1,0,.37c0,.27-.07.64-.13,1.1-.12,1-.29,2.4-.52,4.2s-.52,4.06-.8,6.66-.66,5.55-1,8.83-.69,6.85-1,10.71-.6,8-.89,12.32c-.51,8.69-.89,18.24-1,28.28s.11,19.6.43,28.29c.21,4.35.38,8.48.65,12.34s.5,7.45.76,10.73.54,6.24.78,8.85.46,4.84.67,6.67.33,3.22.43,4.21c.05.46.08.83.1,1.1A2.17,2.17,0,0,1,254.5,377Z" style="fill:#263238"></path><path d="M250.13,300a4.24,4.24,0,0,1,.2-.79c.17-.56.4-1.31.68-2.25.6-2,1.49-4.77,2.62-8.24,2.26-6.94,5.5-16.48,9.29-26.95s7.41-19.88,10.12-26.66c1.35-3.39,2.46-6.12,3.25-8,.39-.9.69-1.62.92-2.16a7,7,0,0,1,.35-.74,4.2,4.2,0,0,1-.25.78l-.83,2.2-3.1,8.06c-2.62,6.81-6.18,16.24-10,26.7s-7.08,20-9.43,26.9c-1.16,3.41-2.1,6.2-2.78,8.18-.32.93-.57,1.67-.77,2.22A4.42,4.42,0,0,1,250.13,300Z" style="fill:#263238"></path><path d="M254,130.61a1.75,1.75,0,0,1,0,.37c0,.28,0,.64-.07,1.09-.08,1-.18,2.4-.32,4.19-.3,3.63-.68,8.9-1.1,15.4s-.83,14.25-1.18,22.86-.58,18.09-.71,28c-.22,19.89.13,37.9.48,50.94.2,6.49.36,11.75.47,15.43.06,1.8.1,3.2.13,4.19,0,.46,0,.82,0,1.09s0,.38,0,.38a1.61,1.61,0,0,1-.05-.37c0-.27,0-.63-.07-1.09-.05-1-.12-2.4-.22-4.19-.19-3.65-.41-8.92-.63-15.43-.46-13-.86-31.05-.64-51,.13-9.95.4-19.42.75-28s.82-16.36,1.3-22.87.9-11.76,1.26-15.39l.41-4.18L254,131A1.74,1.74,0,0,1,254,130.61Z" style="fill:#263238"></path><g style="opacity:0.30000000000000004"><path d="M197.69,175.66c5.13-.22,10.12-1.6,15.07-3a77.05,77.05,0,0,0-13.62-1.35,31.49,31.49,0,0,0-6.9.87,22.94,22.94,0,0,0,8.9-8.85l.09-.17,7.8-7.44-.11-.15c-2.18,1.58-4.33,3.22-6.45,4.9a23,23,0,0,0,1.18-12.22,19.81,19.81,0,0,1-6.57,7.75,29.6,29.6,0,0,0,1.54-5.77,12.15,12.15,0,0,0-1.11-7.5c-3.64,6.77-9.45,12.37-12,19.62-.15.43-.29.87-.41,1.31-.74-6.17-2.14-12.27-2.21-18.48a65.28,65.28,0,0,0-.77,12c-.35-.46-.72-.9-1.09-1.35q2.49,10.76,5.62,21.35a7.17,7.17,0,0,1,3,.14,14.8,14.8,0,0,0-2.62.16l-.3.05q1.19,4,2.52,8a12,12,0,0,1,3.78,0,6.59,6.59,0,0,1,1.52.43l3.22,2c6.91,5.43,14.47,18,14.47,18l-6.7-15.4c-.6-.84-3.43-7.68-9.11-11.2a9.28,9.28,0,0,0-2.08-2.07,9.83,9.83,0,0,0-4.54-1.73C192.44,175.59,195.08,175.77,197.69,175.66Z"></path></g><path d="M143.06,181.08l18.53,3.55c2.09.4,4.47,1,5.43,2.91l-1.33.8c-3.43-1.79-7.4-2.86-11.08-4.05C151.3,183.22,142.22,181.5,143.06,181.08Z" style="fill:#263238"></path><path d="M171.74,182A26.11,26.11,0,0,1,184.35,177a78,78,0,0,1,13.67-.28c-4.74,1.95-9.54,3.9-14.61,4.73-4.18.69-8.54.6-12.53,2.05Z" style="fill:#92E3A9"></path><g style="opacity:0.30000000000000004"><path d="M171.74,182A26.11,26.11,0,0,1,184.35,177a78,78,0,0,1,13.67-.28c-4.74,1.95-9.54,3.9-14.61,4.73-4.18.69-8.54.6-12.53,2.05Z"></path></g><path d="M192.31,160.37,184,170.47a65.53,65.53,0,0,1-4.89,5.5c-2.74,2.64-6,4.85-8.07,8a12.11,12.11,0,0,1,2.3-3.68,201.21,201.21,0,0,1,18.87-20.08" style="fill:#263238"></path><path d="M169.9,186.13c-.67-5.43-1.33-11-.15-16.37,1.67-7.51,6.77-13.76,9.58-20.91a12.1,12.1,0,0,1,2,7.31,36.4,36.4,0,0,1-1.23,7.6c-1.19,5-2.41,10.14-5.16,14.51-1.16,1.85-4,5.06-5,7.86" style="fill:#92E3A9"></path><g style="opacity:0.30000000000000004"><path d="M169.9,186.13c-.67-5.43-1.33-11-.15-16.37,1.67-7.51,6.77-13.76,9.58-20.91a12.1,12.1,0,0,1,2,7.31,36.4,36.4,0,0,1-1.23,7.6c-1.19,5-2.41,10.14-5.16,14.51-1.16,1.85-4,5.06-5,7.86"></path></g><path d="M173.44,181.87a22.2,22.2,0,0,1,3.16-2.47,22.73,22.73,0,0,0,9.48-25.8,19.93,19.93,0,0,1-7.35,9.87s-2.48.15-4.55,5.27-4.48,16.66-4.48,16.66Z" style="fill:#92E3A9"></path><path d="M153.86,196.05c8.95-4.37,7.43-8.11,19.22-11.43S192,194.32,193,195.43l11,14.5s-16.38-17.86-24.06-18-5.4,3.84-20.62,8.13-21.88,2.81-21.88,2.81A142.7,142.7,0,0,0,153.86,196.05Z" style="fill:#263238"></path><path d="M176.64,184.35a6.47,6.47,0,0,0-6.74,1.77h0a4.52,4.52,0,0,1,3.46-3.49,10.2,10.2,0,0,1,7,1,9.46,9.46,0,0,1,4.88,8.54c-.24,4.93-4.38,8.69-6.28,13.24.66-3.07,1.33-6.14,2-9.21a25.6,25.6,0,0,0,.68-4.51,7.85,7.85,0,0,0-1.14-4.65A6.81,6.81,0,0,0,176.64,184.35Z" style="fill:#92E3A9"></path><path d="M167.85,176.64c-1.55-7.8-3.11-15.68-2.74-23.62,1,7.69,4.06,15,5.34,22.63a10.38,10.38,0,0,1,.17,3c-.14,1-.33,5.79-1.12,6.41l-.12-.43C169.15,182.77,168.19,178.33,167.85,176.64Z" style="fill:#263238"></path><path d="M157.66,153.4a18.73,18.73,0,0,0,4.05,7.63c1.62,1.83,3.59,3.34,5.18,5.2s2.8,4.26,2.47,6.68c-.23,1.74-1.22,3.29-1.66,5a8.11,8.11,0,0,0,2.36,7.85c-.06,0-.06.45-.26.35-5.61-2.57-9.91-8.18-12.29-13.92A24.27,24.27,0,0,1,157.66,153.4Z" style="fill:#92E3A9"></path><path d="M157.66,153.4c0,.06-.38,1-.91,2.84a24.59,24.59,0,0,0-.83,8,24.92,24.92,0,0,0,1,5.49,27.93,27.93,0,0,0,2.56,5.85,24.57,24.57,0,0,0,10.23,10.17l.17.08s.08,0,0,0a.18.18,0,0,0-.15,0s0,0,0-.06l0-.09,0-.07a.17.17,0,0,1,0-.07l0-.06a.36.36,0,0,1,.2-.06l-.2.46a8.41,8.41,0,0,1-2.63-7c.28-2.54,1.92-4.5,1.91-6.68a9,9,0,0,0-2.24-5.62,49.34,49.34,0,0,0-3.84-3.91,19,19,0,0,1-4.57-6.52,15.46,15.46,0,0,1-.71-2.05c-.12-.47-.14-.72-.15-.74s.09.22.25.71a21.3,21.3,0,0,0,.79,2,19.69,19.69,0,0,0,4.64,6.34,46.28,46.28,0,0,1,3.92,3.9,9.39,9.39,0,0,1,2.39,5.9c0,2.39-1.67,4.38-1.89,6.73a8,8,0,0,0,2.48,6.58l.18.16-.36.05a.39.39,0,0,0,.18.1c.07,0,0,0,0,0l0,.09a.77.77,0,0,1-.15.28.34.34,0,0,1-.31.1.64.64,0,0,1-.16-.06l-.17-.08a21.26,21.26,0,0,1-6.19-4.61,30.18,30.18,0,0,1-6.8-11.76,25.13,25.13,0,0,1-.92-5.59,23.92,23.92,0,0,1,1-8.09A15.29,15.29,0,0,1,157.66,153.4Z" style="fill:#263238"></path><path d="M170.53,173.34a1.86,1.86,0,0,1-.09-.74,10.66,10.66,0,0,1,.13-2,17.74,17.74,0,0,1,2.28-6.24,32.13,32.13,0,0,1,4-5.32,12,12,0,0,1,1.95-1.93,15.5,15.5,0,0,1-1.67,2.17,42.52,42.52,0,0,0-3.79,5.34,20.16,20.16,0,0,0-2.37,6.05C170.6,172.28,170.62,173.34,170.53,173.34Z" style="fill:#263238"></path><path d="M177.35,179.59a8.1,8.1,0,0,1,2.12-.71,49.45,49.45,0,0,1,10.65-1.52,9,9,0,0,1,2.23.09c0,.16-3.39.3-7.53.89S177.39,179.74,177.35,179.59Z" style="fill:#263238"></path><path d="M242.77,262.14a3.66,3.66,0,0,1-.31-.65l-.8-1.9c-.18-.41-.35-.87-.58-1.36s-.52-1-.82-1.57c-.59-1.12-1.21-2.43-2.07-3.78a177,177,0,0,0-14.52-20.28c-6.13-7.6-12-14.17-16.35-18.91l-5.13-5.57-1.4-1.52a3.17,3.17,0,0,1-.46-.55,3.8,3.8,0,0,1,.54.48l1.47,1.45c1.26,1.27,3.07,3.12,5.25,5.46,4.38,4.68,10.34,11.22,16.48,18.83a161.39,161.39,0,0,1,14.44,20.43c.85,1.36,1.44,2.69,2,3.83l.78,1.59c.22.5.38,1,.54,1.4l.71,1.94A3.92,3.92,0,0,1,242.77,262.14Z" style="fill:#263238"></path><path d="M259.14,225.61s-15.51-.42-21.56-9.3,2.16-43.88,35.2-61.49l8.54,8.59-4.52-14.65s8.38-15.64,42.67-20.41c0,0,11.32-2.89,18.63-.87s5.1,7.1,5.1,7.1-81.33,70.7-81.69,71.64S259.14,225.61,259.14,225.61Z" style="fill:#455a64"></path><path d="M338.1,127.48c-7.31-2-18.63.87-18.63.87-34.29,4.77-42.67,20.41-42.67,20.41l4.52,14.65-8.54-8.59c-33,17.61-41.24,52.61-35.2,61.49s21.56,9.3,21.56,9.3,2-18.45,2.37-19.39,81.69-71.64,81.69-71.64S345.42,129.5,338.1,127.48Z" style="opacity:0.30000000000000004"></path><path d="M302.35,155.35c-11.56,6-23.39,12.14-32.64,21.14q2.67,2.37,5.53,4.5c1.17.87,2.48,1.92,2.53,3.38q-6.4-1.1-12.7-2.83c-12.58,15.41-16.26,36.1-19.57,55.72a3.17,3.17,0,0,0-.05,1c.21,2,2.12,2.13,3.66,2a86.05,86.05,0,0,0,11.1-1.36l8.56-18.56c8.56-18.55,39.13-51.83,51.05-62s21.83-20.45,22.39-21.72c.34-.75.63-1.52.94-2.28Z" style="fill:#455a64"></path><path d="M297.88,179.51a21.22,21.22,0,0,1-2.72-1.63c-1.65-1-3.92-2.49-6.46-4s-4.87-2.94-6.55-3.93a22.55,22.55,0,0,1-2.68-1.69,16.57,16.57,0,0,1,2.86,1.36c1.73.92,4.09,2.25,6.64,3.81s4.8,3.07,6.4,4.2A16.56,16.56,0,0,1,297.88,179.51Z" style="fill:#263238"></path><path d="M301.76,172.48a25,25,0,0,1-4.33-2.65,25.26,25.26,0,0,1-4-3.09,25,25,0,0,1,4.34,2.66A24,24,0,0,1,301.76,172.48Z" style="fill:#263238"></path><path d="M292.45,164.9c-.09.12-.49,0-.9-.34s-.67-.66-.59-.77.49,0,.9.35S292.54,164.79,292.45,164.9Z" style="fill:#263238"></path><path d="M310.3,165.07a42.21,42.21,0,0,1-4.2-4.06,43,43,0,0,1-4-4.24,26.38,26.38,0,0,1,4.39,3.87A27.39,27.39,0,0,1,310.3,165.07Z" style="fill:#263238"></path><path d="M313.83,158.77c.14-.06.6.82,1.05,2a5,5,0,0,1,.56,2.15c-.13.05-.6-.83-1.05-2A5,5,0,0,1,313.83,158.77Z" style="fill:#263238"></path><path d="M278.83,179.11a10.74,10.74,0,0,1,2,1.14l4.63,2.95,4.65,2.93a9.84,9.84,0,0,1,1.88,1.3,9.37,9.37,0,0,1-2.06-1c-1.24-.67-2.93-1.65-4.75-2.8s-3.42-2.25-4.56-3.08A9.1,9.1,0,0,1,278.83,179.11Z" style="fill:#263238"></path><path d="M272,214.86a20.63,20.63,0,0,1-3.14.09c-1.93,0-4.6,0-7.55.16s-5.61.31-7.54.46a21.24,21.24,0,0,1-3.13.16,17.35,17.35,0,0,1,3.09-.53c1.93-.24,4.6-.49,7.56-.61s5.64-.09,7.58,0A17,17,0,0,1,272,214.86Z" style="fill:#263238"></path><path d="M274.25,211.15a16.64,16.64,0,0,1-2.58-.51c-1.58-.36-3.77-.83-6.2-1.24s-4.65-.7-6.26-.88a14,14,0,0,1-2.6-.37,12.13,12.13,0,0,1,2.63,0,59.41,59.41,0,0,1,12.52,2.13A11.7,11.7,0,0,1,274.25,211.15Z" style="fill:#263238"></path><path d="M314.75,200.82l-14.67,7.35c-1.66.83-3.51,1.89-3.87,3.71l1.31.36a62.46,62.46,0,0,1,8.31-6C308.36,204.55,315.55,201,314.75,200.82Z" style="fill:#263238"></path><path d="M291,208.34a22.66,22.66,0,0,0-11.72-1.16,67.74,67.74,0,0,0-11.52,3,59.11,59.11,0,0,0,13.35.51c3.67-.41,7.29-1.51,11-1.24Z" style="fill:#92E3A9"></path><g style="opacity:0.30000000000000004"><path d="M291,208.34a22.66,22.66,0,0,0-11.72-1.16,67.74,67.74,0,0,0-11.52,3,59.11,59.11,0,0,0,13.35.51c3.67-.41,7.29-1.51,11-1.24Z"></path></g><path d="M268.62,195.11,278,201.6a58.65,58.65,0,0,0,5.4,3.44c2.91,1.57,6.14,2.65,8.64,4.82a10.09,10.09,0,0,0-2.79-2.53A174.53,174.53,0,0,0,268.7,195" style="fill:#263238"></path><path d="M293.47,211.38c-.72-4.7-1.5-9.55-3.74-13.74-3.17-5.89-8.91-9.92-13-15.24a10.61,10.61,0,0,0,.07,6.59,31.53,31.53,0,0,0,2.82,6.07c2.18,3.92,4.41,7.92,7.74,10.93,1.41,1.27,4.54,3.3,6.07,5.39" style="fill:#92E3A9"></path><g style="opacity:0.30000000000000004"><path d="M293.47,211.38c-.72-4.7-1.5-9.55-3.74-13.74-3.17-5.89-8.91-9.92-13-15.24a10.61,10.61,0,0,0,.07,6.59,31.53,31.53,0,0,0,2.82,6.07c2.18,3.92,4.41,7.92,7.74,10.93,1.41,1.27,4.54,3.3,6.07,5.39"></path></g><path d="M289.5,208.66a18.6,18.6,0,0,0-3.23-1.33,19.79,19.79,0,0,1-14-19.36,17.32,17.32,0,0,0,8.49,6.52s2.11-.46,5,3.35,7.69,12.88,7.69,12.88Z" style="fill:#92E3A9"></path><path d="M309.25,215.91c-8.53-1.55-8.14-5-18.8-5s-13.56,12.59-14.14,13.76l-4.49,14.14s8.17-18.21,14.56-20.15,5.43,1.94,19.18,1.94,19-2.81,19-2.81A125,125,0,0,1,309.25,215.91Z" style="fill:#455a64"></path><path d="M287.41,211.48a5.65,5.65,0,0,1,6.06-.11h0a4,4,0,0,0-3.72-2.1,9,9,0,0,0-5.62,2.44,8.29,8.29,0,0,0-2.07,8.31c1.37,4.07,5.72,6.24,8.39,9.6l-3.84-7.25a21.73,21.73,0,0,1-1.64-3.61,6.88,6.88,0,0,1-.14-4.16A6,6,0,0,1,287.41,211.48Z" style="fill:#92E3A9"></path><path d="M293,203c-.54-6.89-1.1-13.86-3.29-20.42,1,6.68.14,13.5.88,20.21a8.82,8.82,0,0,0,.56,2.54c.35.81,1.64,4.78,2.45,5.11V210C293.31,208.39,293.06,204.45,293,203Z" style="fill:#263238"></path><path d="M296,181.09a16.21,16.21,0,0,1-1.6,7.34c-.92,1.92-2.21,3.65-3.1,5.58a7.71,7.71,0,0,0-.5,6.18c.61,1.4,1.8,2.46,2.57,3.78a7.07,7.07,0,0,1-.13,7.14c.05,0,.16.35.31.23,4.09-3.48,6.36-9.19,7-14.56A21.16,21.16,0,0,0,296,181.09Z" style="fill:#92E3A9"></path><path d="M296,181.09a13.48,13.48,0,0,1,1.59,2.06,20.7,20.7,0,0,1,2.76,6.54,21.79,21.79,0,0,1,.55,4.9,24.56,24.56,0,0,1-.73,5.61,21.71,21.71,0,0,1-6.29,11.19l-.12.11a.38.38,0,0,1-.12.09.39.39,0,0,1-.32,0,.59.59,0,0,1-.2-.21l0-.07h0l0,0,0,0a.25.25,0,0,0,.19,0L293,211a6.88,6.88,0,0,0,.52-6.07c-.73-1.89-2.59-3.17-3.17-5.19a8.24,8.24,0,0,1,.61-5.52,41.75,41.75,0,0,1,2.37-4.19,17.1,17.1,0,0,0,2.4-6.4,18.41,18.41,0,0,0,.19-1.86c0-.44.06-.68.06-.65s0,.24.05.65a14.56,14.56,0,0,1-.1,1.89,16.61,16.61,0,0,1-2.28,6.55,40.45,40.45,0,0,0-2.29,4.18,7.79,7.79,0,0,0-.55,5.21c.5,1.82,2.34,3.07,3.18,5.14a7.34,7.34,0,0,1-.55,6.54l-.31-.39a.27.27,0,0,1,.2,0l.07,0,.06.05,0,.06,0,.07,0,0s0,0,0,0a.24.24,0,0,0-.07.09s0,.06,0,0a.05.05,0,0,0,0,0l-.08-.09h0l0,0,.12-.12a21.32,21.32,0,0,0,6.16-10.9,24.34,24.34,0,0,0,.77-5.5,21.84,21.84,0,0,0-.48-4.81,21.52,21.52,0,0,0-2.57-6.52C296.53,181.83,296,181.15,296,181.09Z" style="fill:#263238"></path><path d="M289.92,200.82c-.08,0-.32-.86-1-2.15a17.84,17.84,0,0,0-3.41-4.49,38.66,38.66,0,0,0-4.43-3.58,12.71,12.71,0,0,1-1.89-1.44,9.89,9.89,0,0,1,2.1,1.14,27.68,27.68,0,0,1,4.58,3.51,15.34,15.34,0,0,1,3.39,4.7A5.71,5.71,0,0,1,289.92,200.82Z" style="fill:#263238"></path><path d="M285.69,207.67c0,.15-2.95.26-6.55.75s-6.48,1.15-6.51,1a24.53,24.53,0,0,1,6.44-1.52A24.21,24.21,0,0,1,285.69,207.67Z" style="fill:#263238"></path><path d="M238.74,351.57a3.72,3.72,0,0,1,.61.85c.37.56.86,1.41,1.43,2.47a48.31,48.31,0,0,1,3.54,8.71,49.11,49.11,0,0,1,1.8,9.24c.1,1.2.15,2.17.15,2.84a4.3,4.3,0,0,1,0,1.05c-.09,0-.17-1.48-.48-3.85a57.77,57.77,0,0,0-5.3-17.82C239.41,352.9,238.67,351.61,238.74,351.57Z" style="fill:#263238"></path><path d="M239.51,377.23c.93.28.51-7.89-.27-11.17-.86-3.59.66-5.55,2.61-1.37S246,379,246,379Z" style="fill:#ae7461"></path><path d="M262.53,367.15a13.09,13.09,0,0,0-4.27,9.38l3.95,0a30.73,30.73,0,0,1,4.13-10.77C265,365.4,263.58,366.2,262.53,367.15Z" style="fill:#ae7461"></path><path d="M238.14,268.52a134.19,134.19,0,0,1-12.64,7.54c-1.7.9-3.89,1.73-5.44.58,5.84-4.48,11.89-9.24,15.36-15.64-4.48-11.11-12.2-24.73-25.58-32.22,0,0-.43-.22-1.21-.58a38.33,38.33,0,0,0-3.9,8.23c-1.58,4.36-2.91,8.89-5.48,12.76-.86-1.06-.53-2.61-.16-3.92q2.67-9.48,5.35-19A136.51,136.51,0,0,0,187,220.1q-2.72,6.3-5.44,12.59c-1-1-.77-2.54-.58-3.89a35.69,35.69,0,0,0,0-10.06,31.7,31.7,0,0,0-9.76-.44c-9.43,1.41-15,5.46-14.5,11.51a116.5,116.5,0,0,1,15.29-.38,64.78,64.78,0,0,1-14.87,2.5,19.89,19.89,0,0,0,3.55,6.37c2.09,2.64,3.85,4.59,5.5,6.33a58.05,58.05,0,0,1,25.23-.4c-2.65,1.69-6.06,1.2-9.2,1.13a31.31,31.31,0,0,0-12.95,2.5c3.84,4.07,7.77,8.74,14.78,20.9,1.08,1.87,2.13,3.71,3.17,5.5a13.06,13.06,0,0,0,6.18,2,31.18,31.18,0,0,0,9.11-1c.6-.13,1.43-.13,1.58.47s-.7,1-1.36,1.09a41.1,41.1,0,0,0-6.25.9,8.49,8.49,0,0,0-5.11,3.46h0c5.9,9.56,11.8,17.18,19.56,20.73a25.72,25.72,0,0,0,8.68-4,13.78,13.78,0,0,1-4.34,5.46,25.9,25.9,0,0,0,8.46.57c18.9-1.69,18.71-21.43,15.33-32.64C238.77,270.51,238.47,269.54,238.14,268.52Z" style="fill:#455a64"></path><path d="M250.13,375.86s0-.15-.07-.45-.09-.78-.16-1.35l-.56-5.19c-.46-4.54-1.13-11.06-2-19.1-.4-4-.85-8.45-1.33-13.19s-.8-9.85-2.55-14.92A100.46,100.46,0,0,0,237,306.23c-2.7-5.15-5.74-10.36-9.09-15.55-6.71-10.39-13.77-19.83-20.31-28.32-3.28-4.23-6.34-8.31-9.38-12a64.69,64.69,0,0,0-9.15-9.51l-8.28-7.16c-2.44-2.09-4.58-3.85-6.37-5.24s-3.22-2.41-4.19-3.11l-1.11-.78a3.58,3.58,0,0,1-.37-.28l.4.24,1.14.74c1,.67,2.45,1.66,4.26,3s4,3.11,6.43,5.18l8.33,7.1a64.58,64.58,0,0,1,9.25,9.51c3.06,3.67,6.13,7.73,9.42,12,6.56,8.48,13.64,17.92,20.37,28.32,3.35,5.21,6.4,10.43,9.11,15.61A99.48,99.48,0,0,1,244,321.52l1.07,3.84c.23,1.29.46,2.57.69,3.82a15.35,15.35,0,0,1,.24,1.88l.18,1.85c.12,1.23.24,2.44.35,3.62.46,4.75.88,9.16,1.27,13.2.75,8,1.37,14.58,1.79,19.12.2,2.24.36,4,.47,5.2,0,.57.08,1,.1,1.35S250.13,375.86,250.13,375.86Z" style="fill:#263238"></path><path d="M188.85,264a15,15,0,0,1,3.09-.42,53.45,53.45,0,0,1,7.54,0,52.53,52.53,0,0,1,7.46,1.06,14.8,14.8,0,0,1,3,.84,23.85,23.85,0,0,1-3.08-.48c-1.89-.32-4.51-.69-7.43-.9s-5.56-.2-7.48-.14A25.58,25.58,0,0,1,188.85,264Z" style="fill:#263238"></path><path d="M210.8,245a44,44,0,0,0-2.55,7.84,44.7,44.7,0,0,0-.49,8.23,8.39,8.39,0,0,1-.38-2.42,23.62,23.62,0,0,1,.36-5.91,24.17,24.17,0,0,1,1.82-5.63A8.59,8.59,0,0,1,210.8,245Z" style="fill:#263238"></path><path d="M214.65,239.33c.12.09-.2.7-.71,1.37s-1,1.13-1.14,1,.21-.69.72-1.36S214.54,239.25,214.65,239.33Z" style="fill:#263238"></path><path d="M224,251.88c.07.05-.73,1.09-1.82,2.89a34.52,34.52,0,0,0-5,15.5c-.16,2.1-.11,3.41-.19,3.41a2.76,2.76,0,0,1-.14-.91,23.82,23.82,0,0,1,0-2.52,30.06,30.06,0,0,1,1.42-8.18,30.94,30.94,0,0,1,3.58-7.5,23.59,23.59,0,0,1,1.5-2C223.78,252.09,224,251.85,224,251.88Z" style="fill:#263238"></path><path d="M224.11,282.82a27.14,27.14,0,0,1-3.37-.13c-2.07-.12-4.94-.22-8.11-.16s-6,.25-8.1.44a28,28,0,0,1-3.36.25,2.61,2.61,0,0,1,.88-.23c.57-.11,1.4-.25,2.44-.39a73.85,73.85,0,0,1,16.28-.28c1,.1,1.88.21,2.45.3A3,3,0,0,1,224.11,282.82Z" style="fill:#263238"></path><path d="M226.54,287.7c0,.15-2.82.14-6.25.5s-6.18.93-6.21.78a21.91,21.91,0,0,1,6.16-1.3A21.61,21.61,0,0,1,226.54,287.7Z" style="fill:#263238"></path><path d="M233.08,279.89c.13.09-1.32,2.16-2.55,5s-1.76,5.31-1.92,5.28a14.33,14.33,0,0,1,1.45-5.49A14.56,14.56,0,0,1,233.08,279.89Z" style="fill:#263238"></path><path d="M203.14,255.61a31.78,31.78,0,0,1-3.3-.68c-2-.44-4.86-1-8-1.33s-6-.48-8.1-.51a28.55,28.55,0,0,1-3.37-.09,3.61,3.61,0,0,1,.9-.14c.58-.06,1.43-.11,2.47-.14a59.25,59.25,0,0,1,8.16.36,60,60,0,0,1,8,1.49c1,.27,1.82.51,2.38.7A2.67,2.67,0,0,1,203.14,255.61Z" style="fill:#263238"></path><path d="M195.11,228.27a15.55,15.55,0,0,1-.34,2.56,59.3,59.3,0,0,0-.62,6.16,61.81,61.81,0,0,0,0,6.2,18.8,18.8,0,0,1,.11,2.57,9.61,9.61,0,0,1-.47-2.54,39.82,39.82,0,0,1,.58-12.45A10.71,10.71,0,0,1,195.11,228.27Z" style="fill:#263238"></path><path d="M189.2,230.17c.15,0-.37,2.05-.36,4.57s.49,4.53.34,4.57a12.31,12.31,0,0,1,0-9.14Z" style="fill:#263238"></path><path d="M181.57,236.75a11.68,11.68,0,0,1-2.25.22c-1.39.08-3.31.2-5.43.39s-4,.4-5.41.56a11.19,11.19,0,0,1-2.25.18,8.49,8.49,0,0,1,2.2-.54c1.37-.26,3.29-.54,5.42-.72s4.06-.25,5.46-.24A8.87,8.87,0,0,1,181.57,236.75Z" style="fill:#263238"></path><path d="M177.92,233.39a6.15,6.15,0,0,1-2.52.11,6.3,6.3,0,0,1-2.49-.41,12.22,12.22,0,0,1,5,.3Z" style="fill:#263238"></path><path d="M282.24,250.68c4.53-3.43,12.92-8.34,22.71-12.53a2.87,2.87,0,0,1,4,2.31c.41,3.64.93,6,1.54,10.58.72-5.47,1-7,1.55-12.51a5.06,5.06,0,0,1,3.45-4.36c16.27-5.31,33.91-7,43.76,3.2.62.64-9.05,4.66-20.72,12.29a3.87,3.87,0,0,1-2.75.58c-12.07-2.07-12.6-.59-14.49.11-1.61.59,6.19.56,12,1.75a121.54,121.54,0,0,0-17.65,17c-1.85,2.17-3.53,4.26-5.06,6.27a16,16,0,0,1-4.65,1.37,82.1,82.1,0,0,1-8.6.34c-.43,0-1,.1-1.09.5-.2.58.58,1,1.19,1.09l5.47,1a2.62,2.62,0,0,1,1.68,4.05c-9.37,13.81-13,21.9-27.61,21,0,0-9.57.34-12.87-11.53S269.08,260.6,282.24,250.68Z" style="fill:#455a64"></path><path d="M250.5,381s0-.17,0-.51.07-.86.13-1.51c.13-1.32.33-3.27.62-5.78.58-5,1.5-12.26,2.95-21.18a313.75,313.75,0,0,1,6.5-31,123.26,123.26,0,0,1,6.17-17.7,112,112,0,0,1,9.9-17.52c1.94-2.85,3.86-5.66,5.91-8.33a99.25,99.25,0,0,1,6.41-7.58A118.13,118.13,0,0,1,303,257.21,116.83,116.83,0,0,1,317,247.75a78.72,78.72,0,0,1,13.59-5.82,130.69,130.69,0,0,1,20.86-4.67c2.5-.37,4.45-.62,5.77-.77l1.5-.17a4.92,4.92,0,0,1,.51,0l-.5.09-1.5.22c-1.32.19-3.26.47-5.75.87a137.37,137.37,0,0,0-20.77,4.82,79.16,79.16,0,0,0-13.5,5.85,117.76,117.76,0,0,0-14,9.46,119.72,119.72,0,0,0-13.75,12.62c-2.21,2.37-4.33,4.9-6.37,7.55s-4,5.47-5.88,8.31a112.44,112.44,0,0,0-9.88,17.43,125.28,125.28,0,0,0-6.17,17.62c-3.13,11.51-5.07,22.09-6.6,31s-2.47,16.14-3.11,21.15c-.31,2.48-.55,4.42-.72,5.76-.07.65-.14,1.15-.18,1.5A5.08,5.08,0,0,1,250.5,381Z" style="fill:#263238"></path><path d="M289.71,291.52a14.51,14.51,0,0,1-2.53.34c-1.56.17-3.71.41-6.08.76s-4.51.72-6.05,1a14.53,14.53,0,0,1-2.53.38,11,11,0,0,1,2.45-.74c1.53-.38,3.67-.82,6-1.16s4.56-.53,6.13-.6A10.63,10.63,0,0,1,289.71,291.52Z" style="fill:#263238"></path><path d="M293.17,287.24a17.55,17.55,0,0,1-2.73.15c-1.69.07-4,.2-6.57.49s-4.85.71-6.5,1a18.53,18.53,0,0,1-2.7.48,11.28,11.28,0,0,1,2.62-.84,51.11,51.11,0,0,1,6.52-1.18,49.37,49.37,0,0,1,6.62-.34A11.62,11.62,0,0,1,293.17,287.24Z" style="fill:#263238"></path><path d="M271.84,267c.14,0,1.18,4.69,2.32,10.52s2,10.59,1.82,10.62a106,106,0,0,1-2.33-10.52C272.51,271.8,271.7,267,271.84,267Z" style="fill:#263238"></path><path d="M281.32,254.5c.08,0-.17,1.36-.43,3.56a55.63,55.63,0,0,0,.64,17.21c.42,2.18.77,3.51.69,3.53a3.12,3.12,0,0,1-.35-.9c-.2-.6-.44-1.47-.7-2.55a45.73,45.73,0,0,1-.64-17.34c.17-1.1.35-2,.5-2.59A3.07,3.07,0,0,1,281.32,254.5Z" style="fill:#263238"></path><path d="M309.5,269.54a25.09,25.09,0,0,1-3.31.22c-2,.11-4.85.3-7.95.66s-5.88.82-7.89,1.19a28.88,28.88,0,0,1-3.27.54,2.74,2.74,0,0,1,.84-.3c.56-.17,1.36-.37,2.36-.6a71.8,71.8,0,0,1,7.9-1.35,74.91,74.91,0,0,1,8-.5c1,0,1.86,0,2.43,0A3.27,3.27,0,0,1,309.5,269.54Z" style="fill:#263238"></path><path d="M315.42,263a26.89,26.89,0,0,1-3-.43,43.51,43.51,0,0,0-14.28.3,29.41,29.41,0,0,1-2.94.54,12.24,12.24,0,0,1,2.86-.9,34.59,34.59,0,0,1,14.42-.3A12.45,12.45,0,0,1,315.42,263Z" style="fill:#263238"></path><path d="M314.94,257.89a11,11,0,0,1-3.36-.19,10.74,10.74,0,0,1-3.29-.71,11.43,11.43,0,0,1,3.36.19A11.1,11.1,0,0,1,314.94,257.89Z" style="fill:#263238"></path><path d="M298.23,243.44a97.77,97.77,0,0,1-1.13,10.21c-.78,5.61-1.52,10.15-1.66,10.13s.37-4.59,1.14-10.2S298.09,243.42,298.23,243.44Z" style="fill:#263238"></path><path d="M287.51,256.73a51,51,0,0,1,.89,7.14,51.08,51.08,0,0,1,.38,7.19,48.11,48.11,0,0,1-.9-7.14A50.06,50.06,0,0,1,287.51,256.73Z" style="fill:#263238"></path><path d="M325.19,234.1c.05.07-.57.6-1.31,1.65a19.69,19.69,0,0,0-2.26,4.52c-.68,1.87-1.26,3.6-1.83,4.8a6.16,6.16,0,0,1-1.09,1.84,15,15,0,0,1,.75-2c.48-1.21,1-2.94,1.68-4.83a16,16,0,0,1,2.45-4.56A4.65,4.65,0,0,1,325.19,234.1Z" style="fill:#263238"></path><path d="M327.6,238.51a9.6,9.6,0,0,1-1.07,2.94,9.74,9.74,0,0,1-1.55,2.73,9.6,9.6,0,0,1,1.07-2.94A9.74,9.74,0,0,1,327.6,238.51Z" style="fill:#263238"></path><path d="M340.67,242.82a20.76,20.76,0,0,1-4.61-.21,20.34,20.34,0,0,1-4.56-.72,40,40,0,0,1,9.17.93Z" style="fill:#263238"></path><path d="M220.82,314.34l-3.91,6.29.68-9.35s-7.13-8.15-28.19-6.28c0,0-7.13-.17-11.21,2s-2.06,4.92-2.06,4.92c27.76,11.37,49.59,25.17,62.52,42.63a40.11,40.11,0,0,0,6.78-10.95C247.81,337.53,242.9,320.29,220.82,314.34Z" style="fill:#455a64"></path><path d="M208.35,312.24a7.94,7.94,0,0,1,.57,2.28,31.65,31.65,0,0,1,.4,5.65,30.32,30.32,0,0,1-.64,5.62A8.27,8.27,0,0,1,208,328c-.16,0,.7-3.51.78-7.89S208.19,312.27,208.35,312.24Z" style="fill:#263238"></path><path d="M200.23,312.26a22.82,22.82,0,0,1,2.47,12.4c-.16,0-.18-2.85-.87-6.27S200.08,312.32,200.23,312.26Z" style="fill:#263238"></path><path d="M213.57,322a10,10,0,0,1-.33,4,9.79,9.79,0,0,1-1.47,3.76,39.7,39.7,0,0,1,1-3.88A37.33,37.33,0,0,1,213.57,322Z" style="fill:#263238"></path><path d="M229,322.65a8.82,8.82,0,0,1-1,2.07,48.65,48.65,0,0,1-3.11,4.65,47.25,47.25,0,0,1-3.6,4.28,9.23,9.23,0,0,1-1.71,1.58,12,12,0,0,1,1.43-1.82c.92-1.09,2.16-2.61,3.47-4.35s2.41-3.35,3.2-4.53A12.76,12.76,0,0,1,229,322.65Z" style="fill:#263238"></path><path d="M236,328.68a9.58,9.58,0,0,1-1.66,1.69c-1.08,1-2.63,2.3-4.41,3.65s-3.46,2.48-4.71,3.25a10.13,10.13,0,0,1-2.08,1.14,10.86,10.86,0,0,1,1.88-1.44c1.18-.85,2.82-2,4.59-3.37s3.35-2.59,4.49-3.51A11.4,11.4,0,0,1,236,328.68Z" style="fill:#263238"></path><path d="M237.59,336.64a19.44,19.44,0,0,1-5,2.78,19.17,19.17,0,0,1-5.44,1.7c-.05-.15,2.37-.94,5.23-2.18S237.51,336.51,237.59,336.64Z" style="fill:#263238"></path><path d="M239.26,160c.12.08-2.76,5.24-6.45,11.54s-6.78,11.35-6.9,11.28,2.76-5.24,6.45-11.54S239.14,159.92,239.26,160Z" style="fill:#263238"></path><path d="M244,151.51c.11.09-.57,1-1.52,2.07s-1.8,1.83-1.91,1.73a7,7,0,0,1,1.52-2.08C243.05,152.18,243.9,151.41,244,151.51Z" style="fill:#263238"></path><path d="M243.59,138.15a7.46,7.46,0,0,1-.89,1.2l-2.52,3.18c-2.13,2.68-5,6.45-7.93,10.76s-5.43,8.35-7.17,11.3c-.82,1.42-1.51,2.59-2,3.5a9.37,9.37,0,0,1-.79,1.27,8.57,8.57,0,0,1,.61-1.36c.43-.86,1.08-2.09,1.91-3.59,1.65-3,4.09-7.08,7-11.41s5.87-8.07,8.07-10.71c1.1-1.31,2-2.36,2.66-3.07A8.06,8.06,0,0,1,243.59,138.15Z" style="fill:#263238"></path><path d="M214.3,150.45a8.43,8.43,0,0,1-1.39-.25l-3.74-.8c-3.17-.67-7.56-1.51-12.45-2.21s-9.34-1.13-12.56-1.38l-3.83-.28a7.08,7.08,0,0,1-1.4-.16,7.83,7.83,0,0,1,1.41,0c.91,0,2.22,0,3.84.11,3.24.16,7.71.53,12.62,1.23s9.29,1.61,12.45,2.37c1.57.38,2.84.71,3.71,1A6.84,6.84,0,0,1,214.3,150.45Z" style="fill:#263238"></path><path d="M229.31,121.65a5.74,5.74,0,0,1-.63,1.06l-1.83,2.8c-1.52,2.38-3.54,5.72-5.52,9.55s-3.55,7.4-4.61,10c-.49,1.23-.91,2.27-1.24,3.11a6.41,6.41,0,0,1-.5,1.13,5.22,5.22,0,0,1,.31-1.2c.23-.76.59-1.84,1.09-3.17a88.94,88.94,0,0,1,4.48-10.13,91,91,0,0,1,5.69-9.51c.8-1.17,1.47-2.1,2-2.72A5.52,5.52,0,0,1,229.31,121.65Z" style="fill:#263238"></path><path d="M222.58,109.6a5.78,5.78,0,0,1-.7,1.1c-.49.69-1.17,1.7-2,3a84.81,84.81,0,0,0-5.7,10.21A83.08,83.08,0,0,0,210,134.78c-.44,1.44-.77,2.6-1,3.42a5.68,5.68,0,0,1-.4,1.24,6.92,6.92,0,0,1,.2-1.29c.16-.83.44-2,.83-3.47a69.42,69.42,0,0,1,10-21.24c.86-1.23,1.59-2.21,2.13-2.86A6.62,6.62,0,0,1,222.58,109.6Z" style="fill:#263238"></path><path d="M213.41,114.93c.14.09-1.07,2-2,4.52s-1.37,4.76-1.53,4.73a15.73,15.73,0,0,1,3.58-9.25Z" style="fill:#263238"></path><path d="M176.33,114.77a3.33,3.33,0,0,1,1,0c.63,0,1.54.06,2.66.17a57.22,57.22,0,0,1,8.66,1.49,58,58,0,0,1,8.34,2.79c1,.44,1.86.83,2.42,1.12a3.57,3.57,0,0,1,.84.49c0,.08-1.3-.48-3.4-1.27a77.25,77.25,0,0,0-8.32-2.62,75.09,75.09,0,0,0-8.58-1.64C177.71,115,176.33,114.85,176.33,114.77Z" style="fill:#263238"></path><path d="M183.1,111a8.15,8.15,0,0,1,2.27.07,29.35,29.35,0,0,1,5.35,1.12,28.31,28.31,0,0,1,5.06,2.09,7.63,7.63,0,0,1,1.91,1.22c-.08.14-3.07-1.58-7.12-2.81S183.09,111.14,183.1,111Z" style="fill:#263238"></path><path d="M199.18,91.89a14.75,14.75,0,0,1-.63,2.59c-.43,1.59-1,3.79-1.48,6.25s-.83,4.7-1,6.33a15.48,15.48,0,0,1-.42,2.63,11.08,11.08,0,0,1,.05-2.67,55.82,55.82,0,0,1,2.55-12.64A12.22,12.22,0,0,1,199.18,91.89Z" style="fill:#263238"></path><path d="M188.74,133.08a14.62,14.62,0,0,1,3,.35,70.27,70.27,0,0,1,7.12,1.66,68.22,68.22,0,0,1,6.9,2.42,14.47,14.47,0,0,1,2.73,1.31,21.72,21.72,0,0,1-2.86-1c-1.76-.63-4.19-1.46-6.92-2.26s-5.23-1.39-7.05-1.79A22.44,22.44,0,0,1,188.74,133.08Z" style="fill:#263238"></path><path d="M189,166.48a6.18,6.18,0,0,1,1.26-.12c.81-.06,2-.09,3.44-.08a81.36,81.36,0,0,1,11.31.88A82.44,82.44,0,0,1,216,169.64c1.39.42,2.5.8,3.26,1.09a4.94,4.94,0,0,1,1.16.49,6.87,6.87,0,0,1-1.22-.3c-.78-.23-1.91-.55-3.3-.92a100.12,100.12,0,0,0-11.05-2.32,101.72,101.72,0,0,0-11.24-1c-1.45-.05-2.62-.08-3.43-.09A5.86,5.86,0,0,1,189,166.48Z" style="fill:#263238"></path><path d="M200,179.19a4.32,4.32,0,0,1,1-.08c.64,0,1.58,0,2.74,0a87.19,87.19,0,0,1,9,.74,84.82,84.82,0,0,1,8.91,1.68c1.12.28,2,.53,2.65.72a3.45,3.45,0,0,1,.95.35c0,.07-1.42-.25-3.69-.71s-5.4-1-8.89-1.53-6.68-.73-9-.88A34,34,0,0,1,200,179.19Z" style="fill:#263238"></path><path d="M203.83,185.35a7,7,0,0,1,2.15-.09,33.81,33.81,0,0,1,5.15.59,35,35,0,0,1,5,1.37,7,7,0,0,1,2,.89c-.05.15-3.11-1-7.05-1.75S203.83,185.51,203.83,185.35Z" style="fill:#263238"></path><path d="M198.72,196.9a10.18,10.18,0,0,1,1.59.15c1,.12,2.48.36,4.28.71a87.95,87.95,0,0,1,26.72,10c1.59.92,2.85,1.7,3.7,2.28a9.17,9.17,0,0,1,1.29.93,8.94,8.94,0,0,1-1.4-.76c-.88-.52-2.16-1.25-3.77-2.13a101.17,101.17,0,0,0-26.62-10c-1.78-.39-3.23-.69-4.23-.87A8.82,8.82,0,0,1,198.72,196.9Z" style="fill:#263238"></path><rect x="182.43" y="376.1" width="138.09" height="21.26" style="fill:#92E3A9"></rect><polygon points="194.56 397.36 209.25 472.43 295.4 472.43 308.39 397.36 194.56 397.36" style="fill:#92E3A9"></polygon><path d="M194.56,397.36l1.2,6.11H307.33l1.06-6.11Z" style="opacity:0.30000000000000004"></path><path d="M251.66,99.89,227.88,71.56a125.21,125.21,0,0,1,25.27,30" style="fill:#263238"></path><path d="M262.67,74.76a30.2,30.2,0,0,0-.85,18.3l1.47,11.41A52.88,52.88,0,0,0,262.67,74.76Z" style="fill:#92E3A9"></path><g style="opacity:0.30000000000000004"><path d="M262.67,74.76a30.2,30.2,0,0,0-.85,18.3l1.47,11.41A52.88,52.88,0,0,0,262.67,74.76Z"></path></g><path d="M231.69,79c2,3.65,4.82,6.59,7.64,9.65s6.08,5.22,9.06,7.9c5.55,5,9.67,11.34,13.72,17.61l-1.6.85c-1.08-3.43-4.2-5.81-7.34-7.57s-6.57-3.2-9.1-5.77a27.09,27.09,0,0,1-4.56-7.1L231.69,79Z" style="fill:#92E3A9"></path><g style="opacity:0.30000000000000004"><path d="M231.69,79c2,3.65,4.82,6.59,7.64,9.65s6.08,5.22,9.06,7.9c5.55,5,9.67,11.34,13.72,17.61l-1.6.85c-1.08-3.43-4.2-5.81-7.34-7.57s-6.57-3.2-9.1-5.77a27.09,27.09,0,0,1-4.56-7.1L231.69,79Z"></path></g><path d="M262.77,113.87c0-3.17-2.39-5.75-4.24-8.33a42,42,0,0,1-6.4-15,125.41,125.41,0,0,1-2.3-16.27L260.49,88.9c1.74,2.4,3.53,4.94,3.87,7.88.31,2.79-.74,5.54-1.24,8.3s-.23,6,2,7.76" style="fill:#92E3A9"></path><path d="M251.87,89.35s5.48,4.09,7.36,7.47,4.54,16.3,4.54,16.3l-1,.75a13.83,13.83,0,0,0-1.55-4.64,26.66,26.66,0,0,0-4.19-5C255,102.78,252.87,94,252.47,91.9A16.16,16.16,0,0,0,251.87,89.35Z" style="opacity:0.30000000000000004"></path><path d="M258.72,103.58c-.71-2.06-1.31-4.17-2-6.24A16.68,16.68,0,0,0,251.84,90c-1.13-1-2.3-1.92-3.46-2.85L237.05,78A27.39,27.39,0,0,0,238.73,82l7.32,14.94c1.3,2.67,2.68,5.43,5,7.31,2,1.65,4.57,2.48,6.8,3.83s4.27,3.6,4.11,6.2l2.09-1.12A25,25,0,0,1,258.72,103.58Z" style="fill:#92E3A9"></path><path d="M262.75,114.53c5.86-14.19,6.16-30,10.05-44.87,1,1.51.3,3.51-.24,5.25-1.71,5.52-1.11,11.46-1.82,17.19-1,7.89-4.4,15.24-7.78,22.44" style="fill:#263238"></path><path d="M262.83,113.73a15.58,15.58,0,0,0-6.61-5.08,25,25,0,0,0-6.49-1,148.86,148.86,0,0,0-19.7.07.73.73,0,0,0-.57.23c-.21.3.13.67.43.87a25.18,25.18,0,0,0,13.57,4.28c3.35.06,6.66-.55,10-.74s6.84.07,9.75,1.72Z" style="fill:#92E3A9"></path><path d="M268.64,106.56a41,41,0,0,0-11.54,13c-3.53,6.72-4,20.22-4.72,27.78,2.13-7.94,4.65-15.92,9.3-22.7,6.64-9.68,17.36-16.56,21.83-27.42A122.53,122.53,0,0,0,268.64,106.56Z" style="fill:#455a64"></path><path d="M252.14,81a4,4,0,0,1,.68.83c.42.55,1,1.35,1.72,2.36s1.51,2.23,2.54,3.47,2.26,2.55,3.41,4.06a13.16,13.16,0,0,1,2.41,4.8,10,10,0,0,1-.13,4.37c-.25,1.12-.47,2.07-.64,2.85a5.17,5.17,0,0,1-.28,1,3.41,3.41,0,0,1,.08-1.08c.08-.68.27-1.67.48-2.87a10,10,0,0,0,0-4.2,13.11,13.11,0,0,0-2.35-4.59c-1.13-1.48-2.36-2.79-3.37-4.08s-1.79-2.55-2.48-3.57S253,82.56,252.66,82A4,4,0,0,1,252.14,81Z" style="fill:#263238"></path><path d="M321,397.36c0,.14-31.08.26-69.41.26s-69.41-.12-69.41-.26,31.07-.26,69.41-.26S321,397.21,321,397.36Z" style="fill:#263238"></path></g></svg>
